<?xml version="1.0" encoding="UTF-8"?>
<svg id="logo-43" xmlns="http://www.w3.org/2000/svg" viewBox="0 0 6.298 6.973">
  <defs>
    <style>
      .cls-1 {
        fill: #78c257;
      }
    </style>
  </defs>
  <path class="cls-1" d="M3.12,2.34c.616,0,1.231,0,1.847,0q.059,0,.059,.058c0,.929-.002,1.857,.002,2.786,0,.169-.182,.38-.364,.366-.117-.009-.236,0-.354-.002-.036,0-.047,.01-.047,.046,.001,.31,.001,.621,0,.931,0,.186-.109,.353-.272,.42-.193,.08-.416-.015-.509-.218-.032-.07-.046-.144-.046-.221,0-.303,0-.605,.001-.908,0-.039-.008-.052-.05-.051-.181,.002-.362,0-.542,.001-.05,0-.05,0-.05,.052,0,.303,0,.605,0,.908,0,.112-.029,.215-.099,.304-.187,.241-.538,.203-.675-.072-.038-.077-.053-.159-.053-.243,0-.299,0-.597,0-.896q0-.053-.054-.053c-.11,0-.22-.004-.33,0-.158,.007-.258-.075-.336-.199-.032-.05-.044-.105-.044-.165,0-.93,0-1.86,0-2.79,0-.055,0-.056,.057-.056,.62,0,1.239,0,1.859,0Z"/>
  <path class="cls-1" d="M2.206,.612c-.086-.15-.171-.298-.257-.447-.016-.028-.033-.057-.049-.085-.015-.026-.029-.055,.006-.074,.033-.018,.05,.007,.064,.032,.098,.17,.198,.339,.295,.51,.016,.028,.03,.031,.058,.019,.289-.121,.59-.17,.902-.155,.234,.011,.459,.063,.674,.152,.033,.014,.049,.011,.067-.022,.092-.164,.188-.327,.282-.49,.006-.01,.012-.021,.018-.03,.016-.023,.037-.03,.061-.015,.024,.015,.022,.037,.009,.059-.046,.079-.092,.159-.137,.238-.059,.102-.118,.204-.179,.31,.016,.009,.03,.017,.044,.025,.367,.198,.646,.478,.814,.863,.081,.186,.121,.381,.129,.583,.001,.034-.008,.045-.044,.045-1.233,0-2.466,0-3.699,0-.038,0-.049-.01-.048-.048,.016-.401,.163-.748,.43-1.046,.149-.167,.326-.299,.523-.403,.008-.004,.016-.008,.024-.013,.002-.001,.003-.004,.008-.01Zm1.808,.887c.096,0,.174-.076,.176-.17,.002-.093-.08-.174-.176-.174-.098,0-.174,.076-.173,.174,0,.095,.077,.17,.173,.17Zm-1.797,0c.096,0,.174-.075,.174-.169,0-.097-.077-.175-.173-.175-.098,0-.174,.077-.174,.174,0,.094,.078,.17,.173,.17Z"/>
  <path class="cls-1" d="M.996,3.587c0,.283,0,.566,0,.848,0,.139-.048,.26-.152,.353-.191,.172-.473,.123-.605-.103-.047-.08-.068-.167-.068-.259,0-.56,0-1.121,0-1.681,0-.147,.05-.275,.165-.372,.205-.173,.507-.094,.619,.162,.029,.067,.043,.137,.042,.21,0,.28,0,.56,0,.841Z"/>
  <path class="cls-1" d="M5.235,3.586c0-.291-.002-.581,0-.872,.001-.135,.055-.251,.159-.338,.199-.166,.479-.107,.604,.124,.039,.072,.059,.148,.059,.229,0,.571,0,1.142,0,1.713,0,.148-.057,.274-.175,.366-.195,.152-.467,.088-.589-.137-.041-.075-.059-.156-.059-.241,0-.281,0-.563,0-.844h0Z"/>
</svg>