<?xml version="1.0" encoding="UTF-8"?>
<svg id="logo-43" xmlns="http://www.w3.org/2000/svg" viewBox="0 0 6.277 6.973">
  <defs>
    <style>
      .cls-1 {
        fill: #737275;
      }
    </style>
  </defs>
  <path class="cls-1" d="M6.067,5.119c-.069,.161-.132,.325-.209,.483-.186,.382-.427,.728-.721,1.035-.158,.165-.346,.285-.578,.32-.146,.022-.288,0-.426-.043-.136-.042-.268-.095-.403-.141-.35-.12-.695-.095-1.038,.033-.122,.046-.245,.09-.37,.127-.302,.092-.567,.017-.805-.182-.197-.165-.354-.365-.506-.57-.361-.49-.602-1.035-.735-1.627-.095-.422-.127-.849-.049-1.277,.102-.562,.365-1.027,.857-1.339,.329-.209,.692-.315,1.082-.248,.196,.034,.385,.11,.577,.169,.109,.033,.217,.069,.326,.103,.069,.021,.139,.02,.208-.003,.193-.065,.387-.132,.581-.196,.218-.072,.44-.124,.67-.109,.528,.035,.985,.217,1.316,.652,.01,.013,.019,.027,.032,.046-.539,.329-.818,.798-.774,1.435,.044,.636,.403,1.051,.965,1.332Z"/>
  <path class="cls-1" d="M4.582,0c.017,.121,.011,.234-.006,.346-.051,.333-.212,.61-.439,.852-.172,.183-.369,.33-.612,.407-.113,.036-.228,.051-.346,.049-.042,0-.054-.016-.056-.055-.014-.251,.042-.486,.157-.707C3.535,.403,3.939,.113,4.48,.011,4.511,.005,4.543,.004,4.582,0Z"/>
</svg>