<?xml version="1.0" encoding="UTF-8"?>
<svg id="logo-43" xmlns="http://www.w3.org/2000/svg" viewBox="0 0 12.309 6.973">
  <defs>
    <style>
      .cls-1 {
        fill: #252f3e;
      }

      .cls-2 {
        fill: #f90;
      }
    </style>
  </defs>
  <path class="cls-1" d="M6.131,1.367c-.017,.071-.033,.136-.048,.2-.171,.714-.341,1.427-.512,2.141-.013,.053-.027,.107-.043,.159-.024,.079-.081,.115-.161,.116-.132,.001-.265,.001-.397,0-.075,0-.132-.034-.159-.105-.029-.079-.055-.16-.08-.241-.28-.921-.56-1.841-.84-2.762-.013-.042-.023-.085-.031-.128-.012-.068,.023-.108,.092-.108,.126,0,.253,0,.379,0,.024,0,.048,.002,.071,.007,.045,.008,.08,.033,.097,.075,.024,.063,.047,.127,.064,.192,.202,.791,.402,1.583,.603,2.375,.002,.008,.005,.015,.012,.024,.006-.022,.012-.044,.017-.067,.189-.803,.378-1.606,.568-2.41,.005-.023,.013-.046,.02-.068,.023-.084,.082-.124,.165-.126,.131-.003,.261-.003,.392,0,.078,.001,.132,.042,.154,.118,.023,.081,.043,.164,.062,.246,.169,.717,.339,1.435,.508,2.152,.015,.062,.029,.125,.049,.188,.006-.023,.013-.047,.019-.07,.21-.812,.419-1.624,.629-2.436,.008-.03,.02-.059,.031-.089,.027-.074,.084-.108,.159-.109,.134-.002,.268-.002,.402,0,.048,0,.08,.032,.077,.079-.002,.045-.008,.092-.022,.135-.255,.819-.511,1.638-.767,2.458-.053,.168-.105,.336-.158,.505-.005,.016-.011,.032-.017,.048-.029,.085-.092,.124-.178,.125-.126,.002-.253,.002-.379,0-.101-.002-.151-.041-.178-.142-.028-.104-.052-.209-.077-.314-.172-.713-.343-1.427-.515-2.14-.002-.006-.004-.013-.008-.025Z"/>
  <path class="cls-2" d="M5.792,6.848c-.119,0-.238,.003-.356,0-.118-.004-.237-.014-.355-.024-.134-.012-.268-.023-.401-.042-.197-.029-.393-.061-.588-.099-.332-.064-.658-.154-.979-.261-.258-.086-.51-.185-.758-.296-.436-.195-.852-.427-1.248-.695-.317-.214-.617-.449-.902-.705-.031-.028-.059-.057-.059-.102,0-.059,.05-.103,.108-.09,.027,.006,.053,.018,.077,.031,.186,.099,.37,.203,.559,.299,.376,.19,.763,.354,1.159,.498,.381,.138,.769,.256,1.162,.353,.299,.074,.601,.137,.906,.185,.169,.027,.338,.05,.508,.071,.128,.016,.258,.027,.387,.037,.129,.01,.258,.019,.388,.025,.1,.005,.2,.008,.3,.01,.109,.003,.219,.006,.328,.004,.161-.003,.322-.007,.483-.016,.136-.007,.272-.016,.408-.031,.224-.025,.447-.052,.67-.085,.537-.079,1.065-.203,1.584-.362,.36-.11,.712-.238,1.059-.384,.056-.024,.113-.029,.17-.004,.094,.042,.122,.151,.057,.231-.026,.032-.061,.059-.095,.084-.336,.243-.695,.445-1.072,.618-.469,.214-.954,.381-1.455,.501-.223,.053-.448,.098-.674,.139-.161,.029-.323,.048-.485,.067-.104,.013-.209,.021-.314,.027-.19,.011-.379,.018-.569,.027,0-.004,0-.008,0-.012Z"/>
  <path class="cls-1" d="M2.917,3.554c-.039,.041-.077,.083-.118,.122-.209,.202-.456,.331-.744,.375-.238,.036-.475,.032-.702-.06-.304-.122-.488-.35-.555-.669-.042-.199-.035-.398,.027-.593,.076-.237,.231-.411,.442-.539,.165-.1,.345-.15,.535-.173,.208-.025,.415-.016,.622,.015,.145,.022,.288,.053,.432,.079,.006,.001,.011,.002,.019,.003,0-.006,.002-.011,.002-.016-.002-.142-.002-.283-.009-.425-.004-.094-.027-.186-.062-.274-.059-.147-.169-.238-.318-.285-.151-.048-.306-.057-.463-.052-.274,.009-.532,.088-.785,.187-.046,.018-.092,.034-.14,.046-.057,.015-.097-.011-.099-.07-.004-.1-.002-.2,0-.3,.001-.043,.025-.078,.063-.1,.053-.031,.107-.062,.164-.086,.352-.147,.719-.212,1.101-.191,.176,.01,.349,.035,.516,.096,.325,.119,.516,.355,.599,.686,.038,.149,.051,.301,.051,.454,0,.386,0,.772,0,1.158,0,.238,.048,.464,.171,.671,.044,.075,.034,.136-.036,.187-.088,.064-.178,.124-.271,.18-.068,.041-.138,.022-.196-.041-.092-.1-.159-.215-.217-.336-.008-.016-.016-.032-.024-.048,0-.001-.002-.002-.004-.003Zm-.033-1.015c-.011-.003-.019-.005-.027-.007-.197-.046-.397-.073-.599-.08-.145-.005-.29,.001-.431,.044-.179,.054-.311,.16-.368,.344-.034,.109-.033,.22-.017,.332,.029,.202,.165,.347,.364,.389,.128,.027,.257,.019,.384-.006,.136-.027,.267-.07,.381-.154,.122-.09,.222-.198,.267-.346,.051-.168,.049-.341,.046-.516Z"/>
  <path class="cls-1" d="M9.949,.537c.308,.006,.571,.05,.823,.149,.052,.02,.101,.052,.147,.084,.052,.036,.079,.09,.079,.155,0,.073,.001,.146,0,.219-.002,.076-.047,.11-.121,.09-.04-.011-.078-.027-.116-.044-.197-.087-.404-.131-.619-.14-.14-.006-.28-.003-.417,.032-.053,.014-.106,.032-.154,.057-.157,.08-.213,.214-.205,.375,.006,.134,.075,.231,.185,.301,.109,.07,.229,.114,.351,.154,.21,.068,.42,.132,.629,.204,.149,.051,.286,.125,.401,.234,.145,.137,.227,.307,.25,.504,.021,.179,.001,.353-.074,.517-.094,.206-.246,.36-.443,.469-.175,.096-.363,.15-.56,.173-.403,.048-.793-.012-1.17-.158-.051-.02-.098-.05-.145-.079-.06-.037-.084-.096-.086-.164-.002-.073-.002-.146,0-.219,.002-.08,.042-.115,.12-.097,.047,.01,.092,.03,.136,.049,.284,.122,.581,.177,.89,.173,.14-.002,.278-.017,.409-.069,.109-.043,.202-.106,.258-.212,.082-.153,.083-.408-.149-.542-.111-.064-.231-.105-.352-.143-.189-.059-.379-.116-.567-.179-.161-.055-.311-.134-.432-.256-.187-.189-.284-.416-.275-.685,.01-.295,.15-.519,.379-.693,.177-.134,.379-.206,.596-.237,.09-.012,.181-.016,.234-.021Z"/>
  <path class="cls-2" d="M10.363,4.737c-.123,.007-.257,.013-.39,.024-.156,.013-.312,.031-.467,.046-.024,.002-.049,.005-.073,.004-.049-.002-.072-.04-.055-.085,.014-.036,.042-.061,.073-.082,.189-.13,.399-.212,.621-.265,.133-.032,.267-.055,.404-.062,.104-.005,.208-.012,.312-.009,.185,.006,.369,.022,.545,.086,.128,.046,.148,.076,.155,.219,.013,.286-.055,.558-.149,.825-.088,.249-.206,.482-.375,.687-.065,.079-.14,.15-.214,.221-.022,.021-.054,.035-.084,.045-.048,.015-.09-.024-.075-.072,.02-.065,.046-.127,.071-.19,.098-.252,.193-.505,.259-.768,.028-.114,.053-.23,.049-.349,0-.029-.005-.059-.012-.088-.016-.068-.067-.104-.128-.127-.073-.028-.149-.04-.226-.046-.076-.006-.152-.009-.24-.014Z"/>
</svg>