<?xml version="1.0" encoding="UTF-8"?>
<svg id="logo-43" xmlns="http://www.w3.org/2000/svg" viewBox="0 0 13.495 6.973">
  <defs>
    <style>
      .cls-1 {
        fill: #2a35c2;
      }
    </style>
  </defs>
  <path class="cls-1" d="M10.98,6.892H2.523c-.015-.008-.029-.018-.044-.024-.163-.058-.228-.166-.204-.344,.017-.126,.118-.21,.27-.222,.046-.004,.093-.002,.14-.002,.773,0,1.545,0,2.318-.001,.089,0,.178-.014,.285-.023-.03-.049-.041-.073-.057-.091-.194-.209-.361-.436-.482-.697-.018-.039-.094-.069-.146-.073-.118-.011-.237-.006-.356-.003-.105,.003-.199-.027-.203-.142-.005-.149-.074-.316,.072-.44,.022-.019,.064-.018,.097-.019,.068-.003,.136-.004,.204,0,.097,.005,.139-.038,.137-.135-.003-.182,0-.364,0-.547q0-.188-.186-.188c-1.244,0-2.488,0-3.732-.002-.216,0-.323-.109-.322-.307,.001-.169,.124-.271,.328-.271,.883,0,1.766,0,2.649,0,.442,0,.883-.001,1.325,0,.135,0,.219-.055,.304-.165,.154-.199,.336-.377,.509-.561,.032-.035,.074-.061,.111-.092-.004-.01-.007-.02-.011-.03-.049,0-.098,0-.146,0-.989,0-1.978,0-2.967,0-.047,0-.094,.004-.14-.004-.128-.021-.223-.089-.251-.219-.026-.126,.01-.245,.122-.31,.068-.039,.161-.05,.243-.05,1.197-.003,2.394-.002,3.592-.002,.055,0,.112,.005,.165-.007,.042-.009,.097-.031,.115-.065,.135-.247,.263-.498,.403-.768-.072,0-.122,0-.171,0-1.159,0-2.318,0-3.477,0-.063,0-.127-.008-.189-.016-.115-.015-.184-.092-.213-.193-.031-.108-.012-.224,.087-.285,.085-.052,.193-.095,.291-.095,1.401-.006,2.802-.002,4.203-.008,.117,0,.245-.033,.35-.086,.531-.268,1.09-.387,1.676-.284,1.117,.196,1.853,.846,2.191,1.927,.052,.168,.135,.263,.294,.328,.558,.23,.976,.611,1.243,1.16,.613,1.259-.038,2.801-1.375,3.229-.192,.061-.395,.087-.594,.129Z"/>
  <path class="cls-1" d="M1.734,4.833c.382,0,.763,.002,1.145-.001,.131-.001,.186,.06,.185,.184,0,.068,.003,.136-.001,.203-.01,.156-.045,.191-.204,.192-.441,.002-.882,0-1.324,0-.284,0-.568,.001-.853,0-.169,0-.221-.049-.239-.213-.034-.305,.02-.369,.323-.372,.322-.003,.645,0,.967,0v.007Z"/>
</svg>