<?xml version="1.0" encoding="UTF-8"?>
<svg id="logo-43" xmlns="http://www.w3.org/2000/svg" viewBox="0 0 7.144 6.973">
  <defs>
    <style>
      .cls-1 {
        fill: #4cb8ec;
      }

      .cls-2 {
        fill: #01579a;
      }

      .cls-3 {
        fill: #02579a;
      }

      .cls-4 {
        fill: #2cb6f5;
      }

      .cls-5 {
        fill: #064f86;
      }

      .cls-6 {
        fill: #41c9fe;
      }

      .cls-7 {
        fill: #02589a;
      }

      .cls-8 {
        fill: #055a9c;
      }

      .cls-9 {
        fill: #03589b;
      }

      .cls-10 {
        fill: #3480b5;
      }

      .cls-11 {
        fill: #3776a9;
      }

      .cls-12 {
        fill: #2ab5f5;
      }

      .cls-13 {
        fill: #41c3fe;
      }

      .cls-14 {
        fill: #52c0f2;
      }

      .cls-15 {
        fill: #0b5186;
      }

      .cls-16 {
        fill: #5bcbfc;
      }

      .cls-17 {
        fill: #27b3f3;
      }

      .cls-18 {
        fill: #3278af;
      }

      .cls-19 {
        fill: #004e92;
      }
    </style>
  </defs>
  <path class="cls-3" d="M5.467,1.341c.225,.222,.451,.443,.675,.666,.284,.283,.566,.569,.848,.853,.007,.015,.013,.03,.014,.046,.003,.896,0,1.791,0,2.687,0,.094-.011,.105-.114,.106-.364,.002-.728,0-1.092,.001-.058,.013-.091-.027-.126-.062-.277-.276-.553-.553-.83-.829-.149-.152-.302-.301-.451-.453-.026-.026-.062-.048-.059-.093,.028-.039,.053-.013,.075,.006,.042,.035,.079,.077,.118,.116,.213,.212,.426,.424,.637,.638,.048,.048,.102,.083,.175,.102-.005-.068,.028-.116,.068-.162,.138-.16,.233-.344,.324-.533,.066-.138,.117-.28,.146-.429,.038-.2,.085-.402,.062-.606-.028-.26-.07-.516-.174-.761-.065-.153-.142-.299-.232-.437-.071-.109-.139-.224-.248-.305-.042-.031-.07-.078-.107-.115-.161-.16-.351-.279-.549-.39-.115-.064-.229-.077-.354-.076-.568,.004-1.136,0-1.704,.003-.356,.003-.712-.002-1.089,.003,.089,.101,.172,.176,.249,.256,.025,.026,.052,.049,.074,.077,.017,.021,.037,.043,.016,.073-.017,.011-.034,.006-.05-.003-.132-.123-.257-.254-.385-.382-.023-.023-.05-.047-.028-.085,.008-.006,.016-.01,.026-.013,.036-.007,.072-.004,.107-.004,1.182,0,2.364,0,3.546,0,.125,0,.246,.019,.363,.066,.024,.011,.044,.027,.065,.041Z"/>
  <path class="cls-13" d="M5.8,5.73c0,.383-.003,.766,0,1.15,0,.069-.012,.094-.089,.094-.902-.003-1.804-.002-2.706-.002-.038,0-.075,.004-.106-.03-.385-.417-.799-.806-1.192-1.214,.004-.004,.008-.008,.012-.011,.036-.018,.076-.013,.114-.013,1.275,0,2.551,0,3.826,0,.039,0,.077,.002,.115,.009,.011,.003,.02,.01,.026,.019Z"/>
  <path class="cls-13" d="M5.467,1.341c-.016-.006-.032-.012-.048-.018-.079-.048-.168-.063-.257-.08-.02-.003-.041,.001-.059-.011-.005-.006-.008-.012-.008-.019-.062,.004-.125,.003-.187,.003-1.138,0-2.275,0-3.413-.001-.045,0-.101,.024-.133-.034C2.07,.789,2.802,.446,3.524,.082,3.686,0,3.865-.01,4.04,.037c.132,.035,.249,.104,.347,.201,.255,.252,.513,.501,.759,.762,.107,.114,.224,.219,.321,.341Z"/>
  <path class="cls-7" d="M.419,3.046c.228-.477,.456-.955,.684-1.432,.056-.116,.114-.23,.171-.346,.041,.038,.026,.088,.026,.133,0,.808,0,1.615,0,2.423,0,.408,0,.816,0,1.224,0,.038-.005,.077,.009,.115,.007,.013,.016,.024,.022,.037,.004,.008,.008,.016,.01,.024,.006,.024,.011,.049,.02,.072,.006,.027,.022,.055-.001,.081-.092-.07-.167-.158-.248-.24-.222-.221-.442-.445-.663-.668,.014-.028,.035-.024,.055-.009,.079,.062,.137,.148,.216,.189-.225-.543-.281-1.116-.17-1.728,.005,.087-.04,.119-.089,.15-.034,.022-.036-.003-.042-.025Z"/>
  <path class="cls-12" d="M1.358,1.275c.139,.143,.278,.286,.417,.428,.164,.163,.325,.327,.491,.488,.048,.047,.069,.112,.115,.159,.009,.009,.013,.025-.001,.036-.01,.008-.022,.005-.031,0-.035-.018-.059-.049-.086-.076-.02-.024-.035-.053-.063-.07-.093-.078-.176-.166-.258-.255-.077-.083-.103-.086-.174,.004-.112,.143-.206,.298-.299,.455-.064,.109-.071,.214-.07,.329,.001,.516,.001,1.031,0,1.547,0,.071,.017,.13,.056,.193,.068,.109,.123,.226,.198,.333,.239,.339,.548,.592,.915,.781,.021,.011,.053,.015,.05,.046-.003,.027-.024,.042-.053,.043-.26,0-.52,0-.78,0-.024,0-.049-.004-.073,.005l-.004,.004c-.082-.073-.159-.15-.231-.232-.119-.13-.154-.293-.154-.46-.003-1.216-.002-2.431-.001-3.647,0-.033-.003-.066,.011-.098,.006-.01,.015-.015,.026-.016Z"/>
  <path class="cls-2" d="M.419,3.046c.026,.01,.104-.029,.112-.059,.007-.029,.012-.058,.042-.102-.118,.636-.057,1.236,.179,1.818-.108-.07-.183-.163-.272-.24-.005-.004-.02,.004-.031,.006-.2-.168-.33-.372-.334-.642-.001-.076,.012-.148,.039-.217,.075-.194,.17-.379,.265-.564Z"/>
  <path class="cls-14" d="M1.345,1.272c0,.945-.001,1.89-.001,2.836,0,.234,.004,.469-.001,.703-.005,.238,.002,.473,.133,.684-.047-.031-.084-.072-.115-.118,.009-.03-.016-.053-.016-.081,.008-.026-.005-.046-.018-.066-.003-.004-.004-.009-.003-.014-.027-.114-.02-.229-.02-.345,0-1.154,0-2.308,0-3.463,0-.045-.013-.095,.024-.134,.005,0,.011-.001,.016-.002Z"/>
  <path class="cls-5" d="M5.8,5.73s-.009-.006-.014-.007c-.007-.011-.004-.02,.008-.025,.055-.011,.11-.005,.165-.005,.32,0,.64,0,.96,0,.05,0,.081-.004,.081-.071-.002-.896-.001-1.791-.001-2.687,0-.014,0-.028-.009-.039,0-.012,0-.024,.001-.036,.037,.017,.037,.049,.037,.083,0,.907,0,1.813,.001,2.72,0,.058-.021,.066-.071,.065-.386,0-.772,0-1.158,.001Z"/>
  <path class="cls-19" d="M1.309,5.196c-.048-.027-.031-.073-.031-.111,0-1.091,0-2.181,0-3.272,0-.182-.002-.363-.003-.545,.002-.009,.005-.018,.007-.027,.046,.016,.029,.055,.029,.085,.001,.331,0,.662,0,.993,0,.891,0,1.781,0,2.672,0,.039-.003,.077,.003,.116,.003,.031,.023,.062-.005,.091Z"/>
  <path class="cls-1" d="M1.307,5.118c-.024-.067-.013-.136-.013-.204,0-1.193,0-2.385-.001-3.578,0-.032,.012-.066-.012-.095,.004-.005,.008-.01,.012-.015,.015-.01,.029-.012,.039,.006,.002,.011,0,.021-.005,.031-.016,.034-.009,.071-.009,.106,0,1.218,0,2.436,0,3.653,0,.032,.011,.066-.01,.096Z"/>
  <path class="cls-6" d="M1.362,1.18c.03,.021,.064,.011,.097,.011,1.2,0,2.401,0,3.601,0h.093c-.014,.027-.036,.012-.052,.017-.03,.028-.067,.022-.102,.022-1.192,0-2.383,0-3.575,0-.039,0-.078,0-.111-.024,.016-.009,.033-.018,.049-.027Z"/>
  <path class="cls-10" d="M1.312,1.208c1.263,0,2.525,0,3.788,.001,.002,.005,.003,.009,.005,.014-.027,.028-.062,.018-.094,.018-1.2,0-2.4,0-3.6,0-.03,0-.061,.005-.088-.015-.01,0-.02,0-.03,0,.006-.006,.013-.012,.019-.017Z"/>
  <path class="cls-9" d="M2.585,1.291c.574,0,1.148,.006,1.722-.004,.144-.002,.26,.044,.379,.107,.182,.097,.352,.213,.5,.356,.254,.246,.456,.527,.59,.858,.068,.168,.116,.337,.147,.513,.036,.207,.058,.411,.019,.623-.033,.178-.051,.358-.118,.527-.105,.265-.232,.518-.423,.734-.025,.028-.054,.056-.04,.093,.024,.063-.007,.055-.046,.043-.053-.017-.103-.041-.143-.082-.251-.252-.503-.504-.756-.754-.018-.018-.029-.069-.075-.036-.022,.009-.038-.005-.051-.018-.097-.093-.193-.188-.285-.286-.011-.012-.02-.026-.02-.044,.016-.051,.042-.041,.071-.011,.072,.076,.148,.148,.221,.223,.033,.035,.044,.03,.077-.01,.125-.155,.192-.332,.224-.524,.033-.201-.021-.385-.107-.565-.082-.171-.213-.298-.365-.396-.302-.194-.625-.211-.952-.062-.071,.032-.131,.091-.2,.131-.041,.024-.013,.086-.065,.097-.024,.001-.041-.013-.057-.028-.132-.13-.264-.261-.394-.394-.011-.012-.02-.026-.024-.042-.038-.071-.069-.149-.148-.188-.007-.004-.016-.007-.02-.014-.058-.101-.178-.144-.232-.249-.008-.015-.02-.026-.033-.036-.073-.056-.075-.066-.009-.13,.149-.144,.321-.256,.502-.355,.041-.023,.082-.045,.116-.078Z"/>
  <path class="cls-4" d="M3.993,3.922c.107,.124,.226,.237,.347,.348,.15,.152,.299,.304,.449,.457,.023,.023,.045,.048,.067,.072-.043,.016-.089,.018-.126,.053-.218,.21-.494,.304-.776,.385-.116,.034-.233,.058-.355,.064-.16,.007-.309-.047-.462-.078-.294-.06-.543-.212-.763-.407-.219-.194-.386-.43-.459-.721-.005-.019-.011-.037-.019-.054-.142-.312-.146-.632-.057-.957,.073-.265,.178-.514,.358-.726,.02-.024,.032-.061,.073-.057,.04,.017,.056,.066,.111,.082-.144-.225-.349-.379-.519-.565-.032-.035-.083-.058-.088-.114,.011,.006,.021,.012,.032,.019,.065,.025,.1,.084,.146,.13,.146,.144,.293,.288,.436,.435,.013,.014,.028,.026,.031,.047,.155,.154,.311,.308,.466,.462,.032,.012,.054,.037,.077,.061,.322,.321,.643,.643,.965,.964,.029,.029,.059,.058,.066,.101Z"/>
  <path class="cls-12" d="M2.27,2.301c-.142,.172-.249,.36-.338,.568-.11,.257-.141,.518-.122,.787,.007,.105,.02,.216,.078,.313,.062,.104,.074,.225,.127,.335,.125,.26,.308,.463,.537,.629,.114,.082,.236,.16,.367,.208,.097,.036,.201,.068,.305,.082,.104,.014,.202,.057,.31,.058,.158,0,.31-.032,.46-.076,.184-.054,.366-.117,.53-.217,.077-.047,.149-.104,.213-.167,.041-.04,.074-.042,.119-.021,.279,.276,.558,.551,.837,.827,.023,.023,.048,.044,.073,.066,.005,.011,.002,.019-.009,.025-.392,.003-.785,0-1.177,.002-.056-.036-.058-.064,.002-.095,.079-.041,.151-.091,.229-.132,.107-.056,.19-.141,.288-.207,.05-.033,.054-.068,.013-.115-.076-.087-.161-.166-.242-.249-.035-.036-.069-.036-.108-.003-.289,.245-.627,.384-1.001,.404-.259,.014-.525,.015-.777-.077-.256-.093-.492-.225-.693-.409-.147-.135-.249-.307-.346-.481-.1-.179-.139-.376-.178-.573-.012-.063-.014-.126-.002-.189,.011-.052,.009-.105,.005-.157-.026-.337,.073-.639,.247-.924,.061-.1,.126-.193,.206-.277,.03,.012,.036,.042,.05,.066Z"/>
  <path class="cls-7" d="M2.419,2.334c-.212-.197-.413-.403-.613-.612,.034-.036-.008-.048-.023-.064-.09-.093-.183-.183-.274-.276-.022-.023-.067-.043-.056-.074,.012-.034,.059-.016,.089-.016,.347-.001,.695,0,1.042,0-.005,.055-.052,.066-.09,.086-.192,.103-.372,.223-.529,.376-.036,.035-.06,.064,.017,.077,.022,.004,.044,.025,.047,.052,.002,.014,.003,.029,.016,.036,.106,.056,.153,.175,.26,.234,.062,.035,.103,.104,.113,.182Z"/>
  <path class="cls-15" d="M5.77,5.707c-.002-.005-.003-.01-.005-.015,.025-.025,.057-.014,.086-.015,.347,0,.695-.003,1.042,.001,.074,0,.098-.018,.098-.095-.003-.895-.002-1.791-.002-2.686,.027,.024,.016,.057,.016,.086,0,.878,0,1.757,.002,2.635,0,.071-.015,.095-.091,.094-.377-.004-.755-.002-1.132-.003-.006,.008-.011,.007-.014-.002Z"/>
  <path class="cls-18" d="M5.167,1.227c.091,.013,.181,.03,.252,.096-.191-.065-.388-.066-.586-.066-1.158,.002-2.315,0-3.473,0,.01-.043,.045-.022,.067-.023,.201-.002,.403-.001,.604-.001,1.012,0,2.025,0,3.037,0,.033,0,.066,.007,.098-.006Z"/>
  <path class="cls-11" d="M5.167,1.227c-.028,.026-.063,.014-.095,.014-1.203,0-2.406,0-3.609,.001-.034,0-.072-.013-.103,.015,0,.006-.001,.012-.002,.018-.004-.001-.009-.002-.013-.002,0,0-.001,0-.001,0-.012-.007-.025-.013-.018-.031,0-.006-.001-.011-.002-.017,1.225,0,2.45,0,3.674-.001,.036,0,.072-.001,.108-.002,.021,.001,.041,.002,.062,.004Z"/>
  <path class="cls-17" d="M5.77,5.707s.01,0,.014,.002c0,.005,0,.01,.002,.015-.025,0-.05,.003-.074,.003-1.309,0-2.618,0-3.927,0-.025,0-.049-.002-.074-.003,.026-.024,.057-.013,.086-.013,.263,0,.525,0,.788,0,.035-.027,.077-.027,.118-.027,.578,0,1.156,0,1.734,0,.041,0,.083-.003,.118,.027,.405,0,.81-.002,1.214-.002Z"/>
  <path class="cls-16" d="M1.325,1.243c.006,.01,.012,.02,.018,.031-.026,.025-.016,.057-.016,.086,0,1.234,0,2.467-.003,3.701,0,.052,.046,.105-.001,.156-.005-.006-.009-.013-.014-.019,0-.026,0-.052-.001-.078,0-.058,.003-.116,.003-.174,0-1.202,0-2.405,0-3.607,0-.032-.012-.067,.014-.095Z"/>
  <path class="cls-16" d="M1.326,5.229c.026,.016,.049,.034,.018,.066-.014-.02-.02-.042-.018-.066Z"/>
  <path class="cls-4" d="M4.555,5.709h-1.97c.004-.024,.035-.039-.021-.063-.161-.069-.309-.165-.444-.279-.079-.067-.16-.132-.234-.203-.061-.059-.122-.12-.169-.189-.093-.135-.179-.276-.265-.415-.08-.129-.073-.252-.074-.382-.002-.523,0-1.047-.001-1.57,0-.045-.002-.085,.044-.115,.036-.023,.035-.073,.055-.109,.086-.157,.184-.305,.3-.44,.07-.081,.101-.077,.171,.01,.082,.103,.18,.189,.275,.28-.002,.029-.015,.053-.033,.074-.189,.221-.321,.471-.371,.758-.019,.111-.061,.22-.03,.34,.018,.068,.012,.147-.008,.221-.015,.056,.003,.114,.012,.171,.042,.266,.138,.507,.283,.735,.175,.275,.418,.463,.704,.6,.218,.104,.447,.167,.695,.166,.211-.001,.42-.002,.627-.051,.082-.019,.15-.068,.227-.095,.161-.057,.308-.142,.43-.264,.04-.04,.074-.044,.117,.003,.089,.098,.187,.186,.275,.285,.036,.04,.033,.073-.001,.097-.107,.073-.197,.169-.316,.229-.085,.043-.159,.107-.249,.141-.031,.012-.035,.037-.026,.067Z"/>
  <path class="cls-7" d="M.407,3.142c.012,.032,.015,.062-.026,.084-.016-.041,.015-.06,.026-.084Z"/>
  <path class="cls-8" d="M3.993,3.922c-.023-.027-.044-.055-.069-.08-.326-.326-.652-.652-.979-.979-.021-.021-.04-.045-.06-.067,.004-.004,.012-.008,.011-.011-.013-.083,.06-.097,.106-.133,.285-.221,.6-.23,.927-.126,.072,.023,.136,.078,.204,.113,.104,.053,.15,.168,.257,.211,.041,.016,.036,.066,.051,.094,.087,.17,.173,.345,.163,.544-.012,.226-.071,.436-.219,.614-.004,.004-.006,.009-.009,.014q-.061,.087-.142,.007c-.068-.068-.137-.135-.202-.207-.023-.026-.029-.013-.04,.006Z"/>
  <path class="cls-8" d="M3.412,2.441c.106-.004,.214-.007,.323,0h-.323Z"/>
</svg>