<?xml version="1.0" encoding="UTF-8"?>
<svg id="logo-43" xmlns="http://www.w3.org/2000/svg" viewBox="0 0 7.144 6.973">
  <defs>
    <style>
      .cls-1 {
        fill: #007ffe;
      }

      .cls-2 {
        fill: #0080fe;
      }
    </style>
  </defs>
  <path class="cls-2" d="M3.366,.041c.399-.038,.793,0,1.178,.105,1.104,.298,1.881,.976,2.312,2.035,.217,.535,.292,1.096,.23,1.673-.161,1.495-1.225,2.693-2.692,3.034-.232,.054-.469,.077-.707,.085-.044,.001-.054-.01-.054-.054,.002-.408,0-.817,.002-1.225,0-.047-.01-.061-.06-.061-.408,.002-.817,.001-1.225,.001-.017,0-.034,.003-.052,.004h.001c-.001-.065-.003-.13-.003-.196,0-.366,0-.732-.001-1.097,0-.041,.007-.056,.053-.056,.412,.002,.825,.002,1.237,0,.047,0,.053,.016,.052,.056-.001,.405,0,.809-.002,1.214,0,.059,.018,.068,.072,.067,.99-.03,1.853-.767,2.017-1.751,.125-.749-.073-1.409-.627-1.942-.344-.331-.769-.498-1.24-.547-.516-.054-.99,.068-1.421,.356-.003,.002-.007,.003-.011,.004-.031,.005-.044-.02-.061-.037-.095-.094-.189-.188-.283-.283-.055-.055-.055-.06,0-.116,.332-.332,.664-.664,.996-.996,.078-.078,.156-.156,.234-.234,.017-.017,.034-.031,.056-.041Z"/>
  <path class="cls-1" d="M3.366,.041c-.016,.017-.03,.035-.047,.051-.411,.411-.822,.823-1.235,1.233-.037,.037-.036,.054,0,.089,.115,.109,.227,.221,.339,.332-.211,.154-.398,.332-.545,.548-.236,.346-.364,.727-.373,1.146,0,.049-.016,.06-.063,.06-.408-.002-.817-.002-1.225,0-.05,0-.06-.014-.059-.061C.206,2.254,.713,1.316,1.681,.633,2.169,.288,2.719,.1,3.314,.042c.017-.002,.035,0,.052,0Z"/>
  <path class="cls-2" d="M1.262,5.64s.007-.003,.011-.003c.338,0,.677,0,1.015,0,.004,0,.007,.002,.011,.004,0,0-.001-.001-.001-.001,0,.317-.003,.634,0,.951,0,.059-.015,.073-.073,.072-.302-.003-.603-.002-.905,0-.043,0-.055-.011-.055-.054,.002-.302,.001-.603,0-.905,0-.021-.002-.042-.002-.064h-.001Z"/>
  <path class="cls-2" d="M1.263,5.639c-.151-.001-.301-.003-.452-.004-.12,0-.24,0-.36,0-.032,0-.048-.004-.048-.043,.002-.259,.002-.518,0-.777,0-.036,.011-.045,.046-.045,.257,.001,.514,0,.772,0,.025,0,.045-.001,.045,.035-.002,.278-.003,.557-.004,.835,0,0,.001-.001,.001-.001Z"/>
</svg>