<?xml version="1.0" encoding="UTF-8"?>
<svg id="logo-43" xmlns="http://www.w3.org/2000/svg" viewBox="0 0 4.661 6.973">
  <defs>
    <style>
      .cls-1 {
        fill: #0ace82;
      }

      .cls-2 {
        fill: #1abbfd;
      }

      .cls-3 {
        fill: #f14e1e;
      }

      .cls-4 {
        fill: #fe7262;
      }

      .cls-5 {
        fill: #a159fe;
      }

      .cls-6 {
        fill: #fefefe;
      }
    </style>
  </defs>
  <path class="cls-3" d="M1.055,2.36c-.285-.059-.539-.176-.724-.409C.045,1.589-.019,1.186,.169,.766,.362,.336,.71,.106,1.182,.092c.386-.012,.772,0,1.158,.001,.041,.04,.039,.093,.039,.144,.001,.663,.001,1.325,0,1.988,0,.047,0,.095-.031,.136-.041,.039-.094,.038-.145,.038-.335,.002-.67,.002-1.004,0-.05,0-.104,.004-.143-.039Z"/>
  <path class="cls-4" d="M2.337,2.359c0-.755,.002-1.511,.003-2.266,.406,0,.812-.013,1.217,0,.544,.019,1.011,.486,1.054,1.032,.045,.571-.341,1.095-.892,1.211-.03,.006-.06,.017-.09,.025-.102,.064-.215,.025-.323,.034-.26-.002-.521,.005-.781,.002-.051,0-.103,.003-.153-.013-.015-.006-.026-.015-.036-.027Z"/>
  <path class="cls-5" d="M1.055,2.36c.427,0,.855,0,1.282-.001,0,0,.004,.008,.004,.008,.046,.048,.035,.109,.036,.166,.007,.249-.009,.498,.005,.747-.021,.136,.026,.279-.039,.411l-.007,.943c-.026,.028-.061,.035-.097,.035-.384,0-.768,.013-1.151-.006-.038-.006-.069-.026-.099-.049-.546-.117-.922-.572-.922-1.115,0-.55,.375-.998,.932-1.117,.019-.004,.036-.014,.054-.022Z"/>
  <path class="cls-1" d="M1.074,4.635c.421,0,.842,0,1.263,0-.002,.445,.044,.892-.02,1.333-.082,.562-.573,.95-1.143,.939-.556-.01-1.018-.43-1.099-.998-.076-.533,.273-1.065,.805-1.226,.038-.011,.076-.02,.114-.03,.024-.018,.052-.018,.08-.018Z"/>
  <path class="cls-2" d="M2.345,3.692c.002-.136-.02-.273,.016-.408-.012-.076,.005-.149,.036-.217,.181-.395,.463-.659,.915-.701,.106-.001,.212-.002,.318-.003,.262,.059,.5,.163,.685,.367,.318,.35,.39,.842,.184,1.264-.208,.426-.647,.676-1.119,.638-.454-.037-.849-.356-.988-.797-.015-.048-.031-.095-.047-.142Z"/>
  <path class="cls-6" d="M3.312,2.366c-.321,.069-.59,.22-.777,.499-.086,.128-.143,.268-.174,.42-.035-.032-.019-.073-.019-.11-.001-.269,0-.538,0-.807,.323,0,.647,0,.97-.001Z"/>
</svg>