<?xml version="1.0" encoding="UTF-8"?>
<svg id="logo-43" xmlns="http://www.w3.org/2000/svg" viewBox="0 0 5.745 6.973">
  <defs>
    <style>
      .cls-1 {
        fill: #025399;
      }

      .cls-2 {
        fill: #3bbded;
      }

      .cls-3 {
        fill: #61d7fc;
      }

      .cls-4 {
        fill: #45d0fc;
      }
    </style>
  </defs>
  <path class="cls-4" d="M5.632,.021c-.013,.014-.026,.028-.04,.042C4.124,1.531,2.655,3,1.187,4.468c-.065,.065-.049,.063-.113,0-.32-.319-.64-.64-.961-.958-.032-.031-.033-.047,0-.079C.938,2.608,1.762,1.785,2.586,.963c.301-.3,.603-.6,.905-.9,.014-.014,.026-.028,.039-.042,.701,0,1.401,0,2.102,0Z"/>
  <path class="cls-1" d="M3.792,5.08c.269,.269,.539,.539,.808,.808,.336,.336,.673,.672,1.009,1.007,.015,.015,.033,.027,.048,.04-.015,.025-.032,.016-.045,.016-.662,0-1.324,0-1.986,0-.031,0-.053-.007-.076-.03-.268-.268-.537-.535-.805-.803-.008-.026,.013-.038,.027-.052,.32-.321,.641-.642,.962-.963,.012-.012,.024-.025,.042-.029,.006,0,.011,.002,.015,.006Z"/>
  <path class="cls-3" d="M3.792,5.08h-.005s-.005,0-.005,0c-.021-.007-.035-.023-.05-.038-.328-.328-.655-.656-.984-.983-.006-.005-.01-.012-.014-.018,.257-.257,.514-.514,.771-.771,.022-.022,.043-.038,.079-.038,.668,.001,1.336,0,2.004,0,.008,0,.015,0,.026,.002-.005,.026-.026,.038-.041,.053-.578,.579-1.157,1.157-1.735,1.736-.017,.017-.04,.031-.047,.058Z"/>
  <path class="cls-2" d="M2.735,4.041c.02,0,.03,.015,.042,.027,.328,.328,.657,.657,.985,.985,.008,.008,.014,.018,.021,.027-.346,.346-.692,.692-1.038,1.039-.107-.088-.2-.19-.299-.286-.242-.234-.481-.47-.722-.705-.026-.025-.036-.041-.004-.072,.339-.337,.677-.677,1.015-1.015Z"/>
</svg>