<?xml version="1.0" encoding="UTF-8"?>
<svg id="logo-43" xmlns="http://www.w3.org/2000/svg" viewBox="0 0 6.367 6.973">
  <defs>
    <style>
      .cls-1 {
        fill: #e34d26;
      }

      .cls-2 {
        fill: #f06529;
      }

      .cls-3 {
        fill: #eaeaea;
      }

      .cls-4 {
        fill: #fefefe;
      }
    </style>
  </defs>
  <path class="cls-1" d="M4.101,3.611s-.007,0-.01,0c.015,.001,.021,.008,.021,.024,0-.003,0-.007,0-.01,0-.01,0-.015-.012-.014Z"/>
  <polygon class="cls-1" points="3.187 4.821 3.183 4.82 3.187 4.822 3.187 4.821"/>
  <polygon class="cls-1" points="2.181 2.847 2.182 2.847 2.181 2.846 2.181 2.847"/>
  <polygon class="cls-1" points="3.179 2.077 3.18 2.076 3.179 2.076 3.179 2.077"/>
  <polygon class="cls-1" points="3.179 5.609 3.179 5.611 3.181 5.609 3.179 5.609"/>
  <path class="cls-1" d="M6.182,.056c-1,0-1.999,0-2.999,0H.196c-.041,0-.04,0-.036,.041,.012,.136,.024,.272,.037,.408,.012,.135,.024,.271,.036,.406,.015,.167,.03,.334,.045,.502,.012,.136,.024,.272,.036,.408,.015,.167,.031,.334,.045,.502,.012,.136,.024,.272,.036,.408,.016,.183,.033,.366,.049,.548,.015,.168,.029,.336,.044,.504,.019,.215,.039,.429,.058,.644,.018,.2,.035,.4,.053,.6,.019,.215,.039,.431,.058,.646,.016,.182,.032,.364,.048,.546,0,.012,.006,.016,.018,.019,.051,.013,.103,.028,.154,.042,.756,.21,1.513,.42,2.269,.631,.023,.006,.045,.006,.067,0,.279-.078,.558-.155,.837-.233,.528-.146,1.056-.293,1.583-.438,.021-.006,.025-.015,.027-.035,.009-.119,.02-.238,.031-.357,.012-.137,.025-.275,.037-.412,.01-.118,.021-.235,.031-.353,.012-.137,.025-.275,.037-.412,.01-.118,.021-.235,.031-.353,.012-.138,.025-.276,.037-.415,.01-.118,.021-.235,.031-.353,.012-.137,.025-.273,.037-.41,.011-.118,.021-.237,.032-.355,.012-.137,.025-.273,.037-.41,.011-.118,.021-.237,.032-.355,.012-.137,.024-.273,.037-.41,.011-.118,.021-.237,.032-.355l.037-.412c.011-.118,.021-.237,.032-.355,.012-.135,.024-.271,.037-.406,.002-.023-.004-.026-.025-.026Zm-.539,.65c-.005,.061-.01,.121-.017,.182-.004,.039-.006,.079-.009,.118-.005,.057-.011,.114-.016,.171-.003,.035-.006,.07-.009,.106-.005,.061-.011,.121-.017,.182-.003,.039-.006,.078-.009,.116-.005,.056-.011,.112-.017,.169l-.009,.106c-.005,.061-.01,.121-.017,.182-.004,.039-.006,.079-.009,.118-.005,.056-.011,.111-.016,.167-.004,.039-.006,.078-.01,.116-.005,.056-.011,.112-.016,.169-.004,.038-.006,.076-.01,.114-.005,.059-.011,.118-.016,.177-.003,.035-.006,.07-.009,.106-.006,.06-.011,.121-.017,.182-.003,.038-.006,.076-.009,.114-.005,.057-.012,.114-.016,.171-.002,.036-.006,.072-.009,.108-.006,.06-.011,.12-.017,.179-.003,.037-.006,.075-.009,.112-.005,.058-.012,.115-.016,.173-.003,.036-.006,.072-.01,.108-.006,.061-.011,.122-.017,.184-.003,.038-.006,.076-.009,.114-.005,.056-.011,.111-.016,.167-.003,.037-.006,.075-.009,.112-.005,.06-.011,.12-.017,.179-.003,.037-.006,.075-.009,.112-.005,.058-.011,.115-.016,.173-.003,.037-.006,.075-.009,.112-.005,.058-.011,.117-.017,.175-.003,.039-.006,.078-.009,.116-.005,.058-.011,.115-.016,.173-.001,.019-.002,.038-.004,.057-.001,.011-.005,.016-.016,.019-.156,.043-.311,.086-.467,.129-.175,.049-.351,.098-.526,.147-.153,.042-.306,.084-.459,.126-.134,.037-.268,.075-.401,.112-.041,.011-.082,.022-.123,.034-.01,.003-.013,0-.012-.009v-.743c0-.01,.002-.02-.004-.029-.25-.07-.5-.14-.751-.209-.261-.072-.521-.145-.782-.217-.015-.004-.019-.011-.021-.025-.006-.069-.012-.139-.018-.208-.011-.122-.022-.245-.033-.368-.01-.119-.021-.238-.031-.357-.006-.072-.013-.145-.02-.217-.002-.016,0-.021,.018-.021,.241,0,.481,0,.722,0,.016,0,.02,.004,.021,.02,.007,.087,.016,.174,.023,.261,.009,.102,.018,.204,.026,.306,.001,.014,.007,.019,.02,.022,.27,.072,.539,.145,.809,.218,.007,.002,.014,.005,.021,.002v-1.183c0-.008,0-.017-.004-.025-.009,0-.019,0-.028,0-.545,0-1.091,0-1.636,0-.023,0-.03-.006-.031-.028-.008-.102-.018-.204-.027-.306-.011-.123-.022-.245-.033-.368-.01-.119-.021-.238-.031-.357-.011-.12-.022-.241-.033-.361-.011-.12-.021-.24-.032-.359-.01-.12-.021-.239-.032-.359-.005-.05-.009-.101-.014-.151,.007-.009,.017-.005,.025-.005,.612,0,1.225,0,1.837,0,.005,0,.01,0,.015,0,.02,.003,.024-.005,.024-.024,0-.235,0-.47,0-.705q0-.028,.028-.028h2.419c.026,0,.029,.004,.025,.029-.005,.039-.009,.077-.012,.116Z"/>
  <path class="cls-2" d="M3.211,.561q-.028,0-.028,.028c0,.235,0,.47,0,.705,0,.018-.004,.027-.024,.024-.005,0-.01,0-.015,0-.612,0-1.225,0-1.837,0-.008,0-.019-.005-.025,.005,.007,0,.014-.001,.021-.001,.619,0,1.239,0,1.858,0,.006,0,.011,0,.017,0,.008,0,.016,0,.023,0,.617,0,1.233,0,1.85,0,.02,0,.027,.002,.025,.026-.017,.173-.032,.346-.047,.519-.006,.064-.013,.129-.017,.193-.001,.018-.008,.02-.023,.02-.274,0-.549,0-.824,0-.319,0-.639,0-.959,0-.009,0-.018,0-.027,0,0,0,0,0,0,0h0c.004,.008,.004,.016,.004,.024,0,.242,0,.484,0,.726,0,.019-.005,.024-.024,.024-.318,0-.637,0-.955,0-.008,0-.016,0-.023-.004,0,0,0,0,0,0,.002,.01,.011,.007,.018,.007,.073,0,.145,0,.218,0,.246,0,.491,0,.737,0,.008,0,.017,0,.025,0,.008,0,.016,0,.023,0,.571,0,1.142,0,1.712,0,.02,0,.027,.002,.025,.026-.015,.155-.028,.31-.042,.465-.012,.136-.023,.272-.036,.408-.012,.135-.025,.271-.037,.406-.011,.119-.021,.238-.032,.357l-.037,.408c-.007,.08-.015,.16-.021,.24,0,.011-.003,.017-.016,.02-.509,.141-1.019,.282-1.528,.423-.003,0-.007,.001-.011,.002,0,0,0,.001-.001,.002,.006,.009,.004,.019,.004,.029v.743c0,.009,.002,.012,.012,.009,.041-.012,.082-.023,.123-.034,.134-.037,.268-.075,.401-.112,.153-.042,.306-.084,.459-.126,.175-.049,.351-.098,.526-.147,.156-.043,.311-.086,.467-.129,.011-.003,.014-.008,.016-.019,.002-.019,.003-.038,.004-.057,.005-.058,.011-.115,.016-.173,.003-.039,.006-.078,.009-.116,.005-.058,.011-.117,.017-.175,.003-.037,.006-.075,.009-.112,.005-.058,.011-.115,.016-.173,.003-.037,.006-.075,.009-.112,.005-.06,.011-.12,.017-.179,.003-.037,.006-.075,.009-.112,.005-.056,.011-.111,.016-.167,.003-.038,.006-.076,.009-.114,.005-.061,.011-.122,.017-.184,.003-.036,.007-.072,.01-.108,.004-.058,.011-.115,.016-.173,.003-.037,.006-.075,.009-.112,.005-.06,.011-.12,.017-.179,.003-.036,.007-.072,.009-.108,.004-.057,.011-.114,.016-.171,.003-.038,.006-.076,.009-.114,.005-.06,.011-.121,.017-.182,.003-.035,.006-.07,.009-.106,.005-.059,.011-.118,.016-.177,.003-.038,.006-.076,.01-.114,.005-.056,.011-.112,.016-.169,.004-.039,.006-.078,.01-.116,.005-.056,.011-.111,.016-.167,.003-.039,.005-.079,.009-.118,.007-.06,.012-.121,.017-.182l.009-.106c.005-.056,.012-.112,.017-.169,.003-.039,.006-.078,.009-.116,.005-.061,.011-.121,.017-.182,.003-.035,.006-.07,.009-.106,.005-.057,.011-.114,.016-.171,.003-.039,.005-.079,.009-.118,.007-.06,.011-.121,.017-.182,.003-.039,.007-.077,.012-.116,.003-.026,0-.029-.025-.029H3.211Z"/>
  <polygon class="cls-3" points="3.18 2.078 3.179 2.077 3.179 2.078 3.18 2.078"/>
  <path class="cls-2" d="M3.646,4.696c.12-.032,.24-.065,.36-.097,.015-.004,.021-.01,.022-.025,.007-.086,.015-.171,.022-.257,.012-.136,.024-.272,.037-.408,.008-.092,.016-.183,.025-.275,0-.016-.006-.022-.021-.024-.002,0-.003,0-.005,0-.294,0-.588,0-.882,0-.008,0-.016,0-.024,0,0,0,0,.001,0,.002,.005,.008,.004,.016,.004,.025v1.183s.002,0,.004,.001c.153-.042,.306-.083,.458-.125Z"/>
  <polygon class="cls-2" points="3.179 3.61 3.18 3.612 3.181 3.61 3.179 3.61"/>
  <polygon class="cls-4" points="3.181 2.861 3.179 2.855 3.179 2.861 3.181 2.861"/>
  <polygon class="cls-4" points="3.179 3.61 3.181 3.61 3.181 3.61 3.179 3.61"/>
  <polygon class="cls-4" points="3.181 1.328 3.179 1.321 3.179 1.327 3.181 1.328"/>
  <path class="cls-1" d="M3.138,2.844c.038,0,.038,0,.038-.039,0-.238,0-.477,0-.715,0-.003,0-.006,0-.008,0-.001,.001-.002,.002-.002-.012,.008-.025,.005-.039,.005-.327,0-.653,0-.98,0-.04,0-.041,0-.038,.039,.009,.104,.019,.207,.027,.31,.008,.089,.017,.179,.024,.268,.003,.038,.007,.077,.01,.115,.001,.011,.004,.021-.003,.031,0,0,0,0,.001,0,.006-.003,.013-.003,.019-.003,.312,0,.625,0,.937,0Z"/>
  <path class="cls-1" d="M2.174,2.701c-.007-.089-.016-.179-.024-.268-.009-.103-.019-.207-.027-.31-.003-.038-.002-.039,.038-.039,.327,0,.653,0,.98,0,.013,0,.026,.002,.039-.005h0c-.007,0-.015,0-.022,0-.143,0-.285,0-.427,0-.199,0-.398,0-.598,0-.015,0-.021,.002-.019,.02,.01,.101,.019,.202,.028,.304,.013,.149,.027,.297,.04,.446,.007-.01,.005-.02,.003-.031-.003-.038-.007-.076-.01-.115Z"/>
  <polygon class="cls-1" points="3.179 2.078 3.18 2.078 3.179 2.078 3.179 2.078"/>
</svg>