<?xml version="1.0" encoding="UTF-8"?>
<svg id="logo-43" xmlns="http://www.w3.org/2000/svg" viewBox="0 0 33.491 6.061">
  <defs>
    <style>
      .cls-1 {
        fill: #2e39bf;
      }
    </style>
  </defs>
  <g>
    <path class="cls-1" d="M23.578,1.987c.129,0,.247-.005,.364,.004,.025,.002,.056,.053,.068,.087,.172,.507,.341,1.016,.512,1.524,.013,.039,.029,.076,.055,.143,.054-.155,.1-.283,.144-.412,.144-.419,.292-.836,.429-1.257,.033-.102,.098-.085,.17-.09,.071-.005,.107,.015,.132,.088,.176,.516,.358,1.03,.538,1.545,.011,.032,.025,.064,.048,.124,.025-.07,.041-.112,.055-.155,.167-.502,.336-1.003,.498-1.507,.025-.076,.059-.101,.136-.095,.095,.007,.191,.002,.301,.002-.04,.109-.075,.205-.11,.301-.231,.629-.464,1.258-.693,1.889-.022,.061-.049,.084-.116,.083-.243-.001-.247,.003-.329-.222-.149-.41-.293-.822-.438-1.233-.01-.027-.019-.054-.037-.106-.022,.053-.038,.084-.05,.117-.162,.453-.324,.906-.483,1.36-.021,.061-.051,.084-.117,.084-.238,0-.237,.001-.319-.221-.239-.647-.48-1.294-.719-1.941-.012-.032-.022-.065-.038-.111Z"/>
    <path class="cls-1" d="M17.642,4.302c-.628,0-1.062-.337-1.169-.93-.119-.663,.228-1.315,.977-1.416,.683-.092,1.222,.236,1.352,.893,.088,.445,.005,.853-.34,1.175-.229,.213-.514,.282-.82,.278Zm.006-2.037c-.499-.001-.847,.344-.838,.859,.008,.487,.303,.856,.831,.859,.505,.003,.832-.325,.835-.834,.003-.52-.337-.883-.828-.884Z"/>
    <path class="cls-1" d="M21.425,3.121c0-.341,.002-.682-.002-1.023,0-.084,.018-.119,.112-.117,.27,.006,.541,0,.812,.003,.658,.004,1.108,.456,1.111,1.113,.003,.467-.171,.837-.607,1.04-.147,.068-.32,.102-.483,.112-.282,.018-.567,.003-.85,.007-.073,.001-.095-.023-.094-.093,.003-.347,.001-.695,.001-1.042Zm.351-.006c0,.238,.002,.476-.001,.714,0,.067,.023,.09,.09,.089,.135-.004,.27-.001,.406-.001,.49,0,.775-.239,.835-.722,.043-.342-.131-.764-.575-.846-.213-.039-.435-.022-.653-.034-.082-.005-.104,.029-.102,.107,.004,.231,.001,.463,.002,.694Z"/>
    <path class="cls-1" d="M29.436,4.256c-.125,0-.237,.003-.348-.003-.02,0-.044-.033-.056-.056-.058-.118-.109-.24-.172-.355-.017-.031-.065-.064-.099-.065-.373-.005-.747-.002-1.12-.004-.057,0-.088,.02-.11,.072-.049,.115-.105,.227-.153,.343-.022,.053-.054,.072-.11,.07-.096-.004-.191-.001-.3-.001,.022-.053,.037-.095,.055-.135,.313-.686,.628-1.371,.94-2.058,.027-.059,.056-.09,.122-.079,.016,.003,.033,.003,.048,0,.207-.044,.305,.049,.388,.24,.279,.648,.581,1.286,.874,1.929,.013,.028,.023,.057,.041,.101Zm-.737-.805c-.165-.366-.325-.72-.498-1.103-.171,.381-.331,.736-.496,1.103h.993Z"/>
    <path class="cls-1" d="M33.392,2.299c-.097,.061-.186,.117-.281,.177-.174-.191-.395-.268-.643-.244-.118,.012-.244,.045-.344,.105-.207,.126-.186,.39,.039,.476,.16,.061,.336,.077,.504,.119,.158,.04,.32,.074,.471,.135,.214,.085,.336,.251,.352,.487,.019,.268-.074,.489-.317,.611-.408,.204-.831,.206-1.248,.023-.172-.076-.293-.213-.386-.387,.091-.061,.175-.117,.266-.178,.118,.172,.27,.289,.469,.34,.211,.053,.421,.052,.625-.029,.139-.055,.23-.153,.233-.311,.004-.16-.093-.257-.23-.297-.196-.057-.401-.085-.6-.134-.124-.031-.249-.066-.365-.119-.398-.182-.394-.765-.054-.982,.203-.13,.428-.169,.663-.168,.181,0,.359,.022,.526,.101,.128,.061,.234,.145,.32,.276Z"/>
    <path class="cls-1" d="M19.097,1.991h.356v.108c0,.392-.001,.784,.001,1.177,0,.083,.007,.168,.026,.248,.078,.319,.351,.489,.709,.449,.291-.033,.503-.276,.508-.597,.006-.424,.002-.849,.003-1.273,0-.035,0-.069,0-.11h.357v.112c0,.411,0,.823,0,1.234,0,.587-.371,.958-.959,.957-.404,0-.732-.14-.91-.525-.049-.106-.085-.227-.087-.342-.01-.475-.004-.951-.004-1.437Z"/>
    <path class="cls-1" d="M14.144,3.733c.077,.084,.15,.163,.227,.247-.174,.167-.386,.27-.625,.306-.264,.039-.527,.026-.778-.076-.516-.209-.71-.71-.672-1.177,.027-.334,.155-.621,.424-.834,.436-.345,1.145-.333,1.568,.026,.022,.019,.043,.037,.07,.061-.081,.081-.155,.155-.235,.235-.24-.209-.517-.276-.825-.213-.188,.039-.349,.129-.469,.282-.259,.33-.241,.84,.035,1.137,.24,.258,.808,.391,1.281,.005Z"/>
    <path class="cls-1" d="M29.222,1.984c.143,0,.268-.004,.393,.003,.029,.002,.065,.035,.083,.064,.177,.276,.351,.554,.526,.831,.02,.032,.042,.062,.071,.105,.083-.124,.158-.236,.232-.348,.129-.196,.26-.391,.386-.588,.031-.049,.066-.07,.125-.068,.114,.004,.229,.001,.363,.001-.029,.045-.046,.074-.066,.102-.267,.386-.536,.77-.799,1.159-.035,.052-.056,.123-.058,.185-.006,.27-.003,.539-.003,.817h-.36v-.219c0-.096-.012-.195,.002-.289,.045-.304-.067-.549-.246-.787-.214-.284-.403-.589-.602-.885-.014-.021-.025-.043-.048-.083Z"/>
    <path class="cls-1" d="M16.205,4.251h-1.586V1.984c.1,0,.202-.003,.304,.002,.019,0,.043,.031,.051,.052,.009,.026,.003,.057,.003,.086,0,.563,.002,1.125-.002,1.688,0,.088,.026,.116,.114,.115,.335-.004,.67,0,1.005-.004,.089-.001,.121,.026,.112,.115-.007,.066-.001,.134-.001,.211Z"/>
  </g>
  <g>
    <path class="cls-1" d="M4.344,5.528c-.09-.103-.171-.185-.237-.277-.082-.115-.155-.236-.222-.36-.029-.054-.061-.072-.12-.07-.116,.004-.232,.003-.348,0-.113-.002-.164-.054-.167-.165-.001-.068-.001-.135,0-.203,.002-.113,.051-.16,.168-.162,.089,0,.179,0,.288,0v-.713c-.025-.002-.068-.007-.111-.007-1.092,0-2.185,0-3.277,0-.1,0-.193-.009-.264-.089-.071-.079-.091-.17-.054-.268,.039-.105,.117-.167,.231-.177,.029-.003,.058,0,.087,0,1.173,0,2.346,0,3.518,.001,.075,0,.121-.019,.162-.087,.131-.217,.305-.398,.507-.55,.022-.017,.044-.035,.089-.071-.065-.003-.104-.007-.143-.007-.876,0-1.753,0-2.629-.001-.063,0-.131-.005-.188-.029-.116-.048-.168-.167-.143-.296,.022-.113,.125-.199,.256-.212,.032-.003,.064-.001,.097-.001,1.092,0,2.185,0,3.277,.002,.076,0,.108-.023,.141-.093,.084-.176,.183-.346,.276-.517,.015-.027,.033-.052,.063-.097-.057,0-.094,0-.131,0-1.034,0-2.069,0-3.103,0-.042,0-.085,.002-.125-.006-.137-.027-.239-.161-.224-.286,.018-.145,.13-.242,.287-.242,1.257,0,2.513,0,3.77,0,.09,0,.167-.018,.247-.062,1.389-.758,3.124-.02,3.494,1.508,.015,.064,.05,.085,.106,.105,.759,.28,1.238,.81,1.378,1.609,.181,1.04-.512,2.054-1.552,2.291-.189,.043-.388,.061-.583,.061-2.384,.004-4.769,.003-7.153,.003-.181,0-.304-.107-.303-.264,0-.155,.128-.269,.304-.269,.735,0,1.469,0,2.204,0h.129Z"/>
    <path class="cls-1" d="M1.353,4.291c.325,0,.651,0,.976,0,.13,0,.178,.05,.18,.181,0,.058,0,.116,0,.174-.002,.119-.057,.174-.179,.175-.203,.001-.406,0-.609,0-.445,0-.889,0-1.334,0-.15,0-.196-.046-.198-.194,0-.058-.002-.116,0-.174,.004-.116,.051-.162,.168-.162,.332,0,.664,0,.995,0Z"/>
  </g>
</svg>