<?xml version="1.0" encoding="UTF-8"?>
<svg id="logo-43" xmlns="http://www.w3.org/2000/svg" viewBox="0 0 27.723 9.979">
  <defs>
    <style>
      .cls-1 {
        fill: #ff2d20;
      }
    </style>
  </defs>
  <path class="cls-1" d="M2.25,.063c.196,.118,.391,.238,.589,.353,.396,.229,.791,.459,1.193,.678,.134,.073,.186,.162,.186,.316-.005,1.22-.003,2.441-.003,3.661v.18c.052-.024,.087-.038,.119-.056,.451-.257,.901-.517,1.355-.77,.079-.044,.101-.096,.101-.18-.002-.599,.002-1.198-.004-1.797-.001-.14,.042-.226,.169-.297,.57-.317,1.136-.642,1.701-.968,.105-.061,.191-.061,.296,0,.569,.329,1.139,.654,1.713,.976,.115,.064,.16,.142,.159,.275-.006,.643-.005,1.287,0,1.93,0,.122-.041,.195-.147,.255-.538,.302-1.071,.612-1.609,.915-.084,.047-.117,.098-.117,.196,.005,.608,0,1.216,.004,1.824,0,.117-.043,.188-.143,.245-1.204,.685-2.407,1.371-3.609,2.06-.095,.055-.173,.059-.271,.002-1.209-.693-2.421-1.383-3.63-2.075-.049-.028-.089-.07-.133-.105,0-2.148,0-4.296,0-6.444,.067-.048,.131-.102,.202-.143C.934,.768,1.498,.447,2.062,.124c.029-.017,.054-.041,.081-.062,.036,0,.071,0,.107,0ZM.479,1.541c-.005,.069-.009,.108-.009,.147,0,1.913,0,3.825-.002,5.738,0,.094,.036,.142,.114,.186,1.069,.607,2.137,1.217,3.205,1.826,.035,.02,.073,.036,.128,.064v-.146c0-.506-.002-1.012,.002-1.518,0-.092-.029-.142-.109-.187-.529-.292-1.052-.593-1.582-.881-.136-.074-.184-.164-.183-.316,.005-1.296,.002-2.591,.005-3.887,0-.095-.024-.152-.112-.199-.216-.114-.425-.241-.637-.362-.265-.151-.531-.302-.818-.465ZM7.648,5.785c-.032,.012-.053,.017-.071,.027-1.093,.618-2.186,1.237-3.28,1.853-.071,.04-.084,.089-.083,.161,.002,.515,0,1.029,.001,1.544,0,.037,.006,.075,.01,.126,.049-.024,.084-.039,.118-.059,1.071-.611,2.142-1.224,3.215-1.833,.075-.043,.105-.092,.104-.179-.004-.506-.002-1.011-.002-1.517,0-.038-.007-.076-.012-.124Zm-5.141,.787c.028,.024,.039,.038,.053,.047,.476,.267,.95,.537,1.43,.797,.046,.025,.137,.007,.189-.022,1.064-.597,2.126-1.199,3.188-1.8,.04-.022,.077-.049,.131-.084-.5-.285-.978-.555-1.453-.832-.085-.05-.147-.044-.23,.004-.541,.314-1.086,.622-1.63,.932-.555,.317-1.109,.633-1.68,.959ZM3.915,1.548c-.059,.029-.094,.044-.128,.063-.44,.25-.877,.505-1.32,.75-.096,.053-.126,.113-.125,.219,.004,1.193,.002,2.386,.002,3.579,0,.046,0,.092,0,.159,.06-.029,.096-.045,.129-.064,.44-.25,.877-.504,1.32-.749,.096-.053,.124-.114,.124-.219-.003-1.193-.002-2.386-.002-3.579v-.159Zm2.317,.786c.523,.299,1.019,.584,1.518,.861,.037,.02,.111,.002,.155-.023,.456-.256,.91-.516,1.364-.776,.029-.016,.054-.038,.09-.064-.027-.02-.043-.035-.061-.046-.473-.271-.946-.543-1.422-.808-.041-.023-.12-.012-.165,.013-.388,.215-.772,.437-1.157,.656-.099,.057-.198,.114-.322,.185ZM.615,1.288c.039,.018,.056,.024,.072,.033,.482,.275,.963,.552,1.447,.822,.038,.021,.112,.008,.154-.016,.457-.256,.911-.517,1.366-.777,.032-.018,.06-.042,.105-.073-.513-.292-1.006-.575-1.502-.851-.038-.021-.112-.009-.155,.015-.299,.165-.595,.337-.892,.506-.187,.107-.375,.214-.595,.341Zm7.338,3.966c.058-.03,.097-.048,.134-.069,.444-.252,.886-.507,1.331-.756,.084-.047,.116-.103,.115-.2-.004-.497-.002-.994-.002-1.491,0-.042-.006-.083-.01-.134-.033,.011-.05,.014-.065,.022-.478,.272-.958,.542-1.432,.82-.04,.023-.067,.099-.068,.151-.005,.426-.003,.852-.003,1.278,0,.119,0,.237,0,.378Zm-.301,.001c.004-.08,.008-.127,.008-.175,0-.483-.002-.966,.002-1.449,.001-.106-.031-.168-.126-.22-.442-.245-.879-.498-1.318-.748-.037-.021-.076-.039-.122-.062-.006,.032-.012,.048-.012,.065,0,.541-.003,1.081,.004,1.622,0,.046,.053,.108,.098,.134,.421,.246,.846,.486,1.269,.727,.057,.032,.115,.063,.197,.108Z"/>
  <g>
    <path d="M19.992,4.657v-.316h.59v2.526h-.589v-.306c-.149,.165-.319,.274-.52,.334-.572,.171-1.215-.146-1.477-.728-.343-.763,.069-1.665,.859-1.859,.423-.104,.806-.03,1.1,.323,.005,.007,.014,.01,.036,.025Zm0,.951c.002-.565-.481-.948-.995-.789-.344,.107-.551,.443-.529,.856,.027,.507,.483,.848,.963,.718,.334-.09,.559-.406,.561-.785Z"/>
    <path d="M15.092,4.656v-.314h.581v2.527h-.579v-.313c-.018,.005-.027,.004-.03,.008-.404,.531-1.224,.453-1.654,.041-.387-.37-.518-.827-.39-1.342,.122-.489,.43-.827,.929-.953,.426-.108,.812-.033,1.108,.324,.005,.007,.015,.009,.035,.021Zm-.767,1.766c.055-.006,.111-.008,.165-.02,.38-.087,.624-.43,.604-.849-.023-.498-.433-.834-.918-.753-.341,.057-.583,.362-.608,.765-.03,.474,.307,.853,.757,.857Z"/>
    <path d="M24.212,5.816c-.01,.229,.167,.49,.409,.588,.447,.181,.8,.008,1.116-.321,.128,.098,.257,.196,.386,.295-.604,.777-1.584,.648-2.068,.244-.254-.212-.375-.493-.426-.814-.097-.613,.259-1.236,.838-1.456,.773-.293,1.593,.18,1.721,.997,.023,.15,.021,.303,.031,.467h-2.007Zm.003-.436h1.44c-.033-.393-.344-.664-.739-.654-.392,.01-.689,.283-.701,.654Z"/>
    <path d="M12.824,6.875c-.086,0-.163,0-.241,0-.488,0-.976-.002-1.463,.002-.077,0-.102-.021-.102-.098,.002-1.209,.002-2.418,0-3.627,0-.075,.021-.106,.1-.103,.134,.005,.269,.007,.403,0,.097-.005,.121,.032,.12,.124-.003,1-.002,2-.002,3,0,.045,0,.09,0,.146h1.185v.558Z"/>
    <path d="M20.903,4.334c.185,0,.364-.003,.543,.004,.026,.001,.062,.049,.075,.082,.228,.583,.454,1.167,.68,1.751,.013,.033,.028,.065,.05,.117,.024-.057,.04-.094,.055-.132,.223-.575,.447-1.149,.666-1.725,.03-.08,.07-.101,.149-.099,.156,.006,.312,.002,.486,.002-.034,.087-.061,.16-.089,.231-.285,.736-.571,1.472-.854,2.208-.028,.073-.06,.107-.146,.104-.19-.008-.38-.004-.57-.002-.048,0-.077-.009-.096-.059-.312-.809-.626-1.618-.939-2.427-.006-.015-.006-.031-.011-.056Z"/>
    <path d="M27.196,6.87h-.582c-.002-.035-.004-.069-.004-.104,0-1.201,0-2.403-.002-3.604,0-.092,.027-.119,.115-.115,.127,.006,.255,.004,.383,0,.066-.002,.095,.02,.092,.09-.004,.098,0,.196,0,.294,0,1.103,0,2.207,0,3.31v.128Z"/>
    <path d="M16.76,6.871h-.578v-2.528h1.609v.553c-.035,.003-.073,.008-.11,.008-.265,0-.53,.004-.796-.001-.096-.002-.129,.021-.128,.125,.005,.572,.003,1.144,.003,1.716,0,.039,0,.078,0,.127Z"/>
  </g>
</svg>