<?xml version="1.0" encoding="UTF-8"?>
<svg id="logo-43" xmlns="http://www.w3.org/2000/svg" viewBox="0 0 26.617 10.548">
  <defs>
    <style>
      .cls-1 {
        fill: #fff;
      }

      .cls-2 {
        fill: #35495e;
      }

      .cls-3 {
        fill: #4dba87;
      }
    </style>
  </defs>
  <path d="M13.731,5.948c.212-.706,.424-1.413,.635-2.12,.172-.576,.346-1.152,.513-1.73,.06-.207,.161-.333,.395-.258,.214,.069,.274,.201,.203,.425-.458,1.458-.91,2.918-1.356,4.38-.067,.221-.199,.321-.421,.324-.23,.003-.343-.116-.409-.332-.451-1.461-.909-2.92-1.372-4.377-.069-.217-.03-.358,.197-.424,.231-.066,.334,.049,.396,.259,.347,1.173,.7,2.344,1.051,3.515,.034,.113,.07,.225,.105,.338,.021,0,.041-.002,.062-.002Z"/>
  <path d="M19.436,5.458c-.049,.725,.533,1.179,1.253,.985,.137-.037,.269-.1,.395-.165,.154-.079,.293-.111,.393,.069,.097,.176-.004,.29-.142,.382-.411,.275-.871,.294-1.333,.212-.77-.136-1.174-.627-1.188-1.406-.004-.255-.006-.512,.021-.765,.062-.596,.421-.974,.974-1.138,.562-.167,1.078-.04,1.487,.404,.28,.303,.336,.673,.272,1.06-.045,.272-.264,.341-.509,.341-.482,.002-.964,0-1.447,.002-.059,0-.119,.012-.176,.018Zm.006-.418c.424,0,.832,.006,1.239-.002,.336-.007,.413-.128,.302-.449-.129-.374-.519-.608-.892-.536-.464,.091-.698,.427-.649,.987Z"/>
  <path d="M18.36,4.834c0,.245,0,.49,0,.735-.003,.738-.573,1.368-1.265,1.403-.83,.041-1.466-.456-1.527-1.256-.046-.599-.017-1.204-.019-1.806,0-.204,.122-.301,.313-.296,.188,.005,.297,.094,.294,.307-.008,.551-.009,1.103,0,1.654,.007,.46,.321,.822,.72,.854,.482,.039,.872-.313,.878-.807,.006-.541,.008-1.082-.002-1.623-.004-.23,.057-.385,.314-.387,.27-.001,.305,.175,.297,.395-.01,.275-.002,.551-.002,.827Z"/>
  <path d="M25.221,7.04c-.305-.103-.617-.189-.909-.32-.096-.043-.188-.199-.197-.31-.017-.201,.178-.286,.361-.159,.294,.204,.613,.274,.962,.231,.215-.026,.406-.101,.453-.342,.045-.231-.062-.408-.268-.499-.232-.103-.478-.177-.721-.257-.532-.176-.75-.459-.709-.928,.041-.47,.377-.833,.885-.856,.349-.015,.705,.061,1.052,.127,.164,.031,.262,.161,.188,.35-.076,.195-.211,.162-.377,.123-.263-.061-.542-.14-.799-.103-.152,.022-.337,.227-.397,.389-.079,.217,.124,.347,.314,.418,.21,.078,.43,.131,.644,.2,.571,.184,.814,.549,.736,1.103-.062,.441-.462,.743-1.01,.762-.061,.002-.123,0-.185,0-.008,.023-.015,.045-.023,.068Z"/>
  <path d="M23.678,5.688c0,.531,.026,1.063-.01,1.592-.02,.295-.106,.602-.233,.87-.146,.308-.462,.394-.786,.352-.088-.011-.228-.145-.224-.215,.005-.097,.115-.257,.198-.269,.327-.046,.433-.244,.437-.529,.012-.734,.018-1.469,.023-2.203,.003-.439,.008-.878-.002-1.317-.005-.222,.062-.358,.304-.358,.247,0,.3,.145,.297,.362-.009,.571-.003,1.143-.003,1.715Z"/>
  <path d="M22.623,6.582c-.022,.224-.132,.378-.363,.38-.224,.003-.368-.125-.375-.359-.006-.232,.119-.365,.353-.374,.239-.009,.348,.137,.385,.353Z"/>
  <path d="M23.304,2c.279,.065,.427,.148,.432,.376,.005,.228-.149,.338-.346,.344-.213,.006-.404-.116-.372-.342,.02-.137,.185-.253,.286-.378Z"/>
  <polygon class="cls-2" points="-.606 19.505 -7.535 22.507 -13.599 18.007 -12.734 10.505 -5.805 7.504 .259 12.004 -.606 19.505"/>
  <g>
    <polygon class="cls-3" points="6.298 10.548 .342 .337 12.255 .337 6.298 10.548"/>
    <polygon class="cls-2" points="6.298 6.556 2.708 .337 9.889 .337 6.298 6.556"/>
    <polygon class="cls-1" points="6.298 2.828 4.86 .337 7.737 .337 6.298 2.828"/>
  </g>
</svg>