<?xml version="1.0" encoding="UTF-8"?>
<svg id="logo-43" xmlns="http://www.w3.org/2000/svg" viewBox="0 0 25.404 12.34">
  <defs>
    <style>
      .cls-1 {
        fill: #264de4;
      }

      .cls-2 {
        fill: #fff;
      }

      .cls-3 {
        fill: #2965f1;
      }

      .cls-4 {
        fill: #ebebeb;
      }
    </style>
  </defs>
  <g>
    <path id="path2999" d="M12.01,3.574h3.748v1.567h-2.181v1.567h2.181v1.567h-3.748V3.574Z"/>
    <path id="path3001" d="M16.508,3.574h3.748v1.363h-2.181v.273h2.181v3.134h-3.748v-1.431h2.181v-.273h-2.181V3.574Z"/>
    <path id="path3003" d="M21.005,3.574h3.748v1.363h-2.181v.273h2.181v3.134h-3.748v-1.431h2.181v-.273h-2.181V3.574Z"/>
  </g>
  <g>
    <polygon id="polygon2989" class="cls-1" points="10.827 .233 9.874 10.918 5.586 12.107 1.311 10.92 .358 .233 10.827 .233"/>
    <polygon id="polygon2991" class="cls-3" points="9.057 10.238 9.872 1.107 5.593 1.107 5.593 11.198 9.057 10.238"/>
    <polygon id="polygon2993" class="cls-4" points="2.542 5.071 2.66 6.381 5.593 6.381 5.593 5.071 2.542 5.071"/>
    <polygon id="polygon2995" class="cls-4" points="5.593 2.418 5.588 2.418 2.306 2.418 2.425 3.728 5.593 3.728 5.593 2.418"/>
    <polygon id="polygon2997" class="cls-4" points="5.593 9.838 5.593 8.474 5.587 8.476 4.127 8.082 4.034 7.037 3.325 7.037 2.718 7.037 2.902 9.094 5.587 9.84 5.593 9.838"/>
    <polygon id="polygon3005" class="cls-2" points="7.202 6.381 7.05 8.081 5.588 8.476 5.588 9.839 8.275 9.094 8.295 8.873 8.603 5.422 8.635 5.071 8.871 2.418 5.588 2.418 5.588 3.728 7.435 3.728 7.316 5.071 5.588 5.071 5.588 6.381 7.202 6.381"/>
  </g>
</svg>