<?xml version="1.0" encoding="UTF-8"?>
<svg id="logo-43" xmlns="http://www.w3.org/2000/svg" viewBox="0 0 45.191 9.532">
  <defs>
    <style>
      .cls-1 {
        fill: #fff;
      }

      .cls-2 {
        fill: #3279c6;
      }
    </style>
  </defs>
  <g>
    <path class="cls-2" d="M19.655,3.553c.09-.002,.101-.057,.127-.094,.378-.534,.905-.729,1.538-.656,.634,.073,1.074,.433,1.265,1.023,.301,.929,.275,1.844-.341,2.66-.479,.635-1.515,.805-2.174,.366-.151-.101-.269-.25-.372-.403-.075,.046-.045,.107-.045,.157-.001,.684-.007,1.367,.005,2.051,.004,.206-.067,.268-.262,.251-.165-.014-.332-.009-.498-.002-.127,.005-.171-.046-.168-.17,.006-.262,.001-.525,.001-.787,0-1.602,.003-3.204-.004-4.806,0-.194,.043-.277,.251-.256,.171,.017,.346,.008,.519,.003,.115-.003,.163,.04,.159,.157-.006,.169-.002,.338-.002,.507Zm2.112,1.21c-.002-.494-.133-.85-.491-1.057-.644-.37-1.404-.021-1.582,.708-.086,.353-.076,.716-.032,1.071,.051,.404,.274,.714,.672,.845,.581,.19,1.096-.075,1.32-.646,.129-.328,.13-.667,.113-.921Z"/>
    <path class="cls-2" d="M14.495,2.89c.501-.002,.505-.003,.66,.466,.283,.858,.561,1.718,.842,2.577,.014,.042,.002,.108,.07,.109,.065,.002,.065-.06,.079-.104,.324-.946,.651-1.892,.967-2.841,.052-.156,.12-.226,.291-.211,.179,.016,.36,.009,.54,0,.141-.006,.184,.023,.126,.172-.383,.969-.759,1.941-1.138,2.911-.211,.54-.421,1.08-.637,1.619-.186,.463-.45,.87-.88,1.148-.339,.22-.716,.234-1.101,.202-.123-.01-.185-.066-.177-.2,.009-.158,.004-.317,.002-.476-.001-.09,.027-.115,.125-.101,.621,.09,.875-.074,1.139-.634,.168-.355,.175-.658,.015-1.03-.486-1.128-.921-2.278-1.384-3.417-.064-.158-.051-.211,.127-.193,.11,.011,.221,.002,.332,.002Z"/>
    <path class="cls-2" d="M25.574,5.207c-.408,0-.817,.005-1.225-.003-.137-.002-.161,.045-.145,.172,.073,.601,.49,.985,1.095,1.013,.44,.021,.856-.048,1.23-.291,.124-.081,.139-.026,.136,.082-.001,.048,0,.097,0,.145,0,.492,.002,.498-.467,.642-.518,.16-1.051,.203-1.578,.072-.857-.213-1.253-.826-1.342-1.659-.061-.566-.032-1.123,.272-1.637,.655-1.105,2.044-1.19,2.778-.605,.475,.379,.613,.916,.658,1.488,.011,.137-.006,.277,.004,.414,.01,.133-.048,.165-.17,.163-.415-.005-.831-.002-1.246-.002,0,0,0,.002,0,.003Zm-.403-.663c.269,0,.539,0,.808,0,.072,0,.146,.004,.14-.1-.03-.574-.379-1.091-1.064-.96-.474,.09-.737,.502-.821,.959-.021,.116,.062,.1,.129,.101,.269,0,.539,0,.808,0Z"/>
    <path class="cls-2" d="M13.076,4.513c0,.767-.004,1.533,.004,2.3,.002,.157-.046,.207-.2,.197-.186-.012-.375-.014-.56,0-.171,.013-.205-.055-.205-.213,.006-1.478,.004-2.956,.004-4.433q0-.316-.308-.317c-.388,0-.776-.006-1.163,.002-.148,.003-.195-.049-.185-.192,.011-.144,.011-.291,0-.435-.013-.152,.053-.185,.192-.185,1.295,.004,2.59,.004,3.884-.001,.159,0,.209,.053,.195,.204-.018,.191,.077,.438-.036,.562-.117,.128-.368,.037-.56,.042-.284,.007-.568,.009-.852-.003-.164-.007-.214,.049-.213,.213,.008,.753,.003,1.505,.004,2.258Z"/>
    <path class="cls-2" d="M38.697,6.359c0,.336,0,.672,0,1.008,0,.435,0,.87,.002,1.304,0,.127,.025,.239-.178,.241-.212,.002-.192-.116-.192-.25,0-1.581,0-3.161,0-4.742,0-.276,.007-.552-.002-.828-.004-.143,.023-.21,.19-.21,.175,0,.187,.088,.183,.221-.006,.183-.002,.366,.019,.555,.166-.208,.306-.422,.525-.573,1.034-.712,2.408-.143,2.62,1.091,.11,.639,.085,1.269-.189,1.866-.258,.563-.692,.968-1.306,1.062-.634,.097-1.204-.089-1.572-.676-.018-.028-.037-.055-.056-.083-.015,.005-.031,.009-.046,.014Zm.013-1.415c-.006,.273-.005,.5,.048,.724,.134,.568,.577,.998,1.148,1.088,.593,.093,1.061-.127,1.346-.644,.435-.792,.475-1.603,.028-2.419-.433-.79-1.708-.687-2.176-.081-.316,.41-.434,.869-.394,1.332Z"/>
    <path class="cls-2" d="M27.485,6.355c.516,.319,1.037,.437,1.6,.374,.545-.061,.956-.377,1.025-.819,.074-.475-.055-.872-.467-1.158-.33-.229-.674-.435-1.016-.645-.188-.116-.37-.242-.548-.374-.478-.354-.643-.843-.537-1.408,.098-.523,.446-.865,.934-1.052,.56-.215,1.128-.168,1.692-.003,.114,.033,.191,.298,.122,.397-.051,.074-.1,.007-.144-.008-.405-.142-.821-.195-1.247-.135-.448,.063-.779,.293-.927,.726-.149,.436,.006,.88,.382,1.181,.39,.313,.843,.529,1.259,.801,.291,.19,.579,.387,.75,.701,.476,.875-.007,1.894-1.005,2.118-.609,.136-1.196,.036-1.77-.186-.076-.029-.108-.074-.105-.155,.004-.103,.001-.206,.001-.355Z"/>
    <path class="cls-2" d="M34.009,3.368c-.317-.159-.632-.247-.973-.242-.706,.012-1.185,.363-1.45,.996-.24,.571-.235,1.161-.012,1.738,.304,.785,1.197,1.129,2.046,.8,.058-.022,.111-.061,.171-.074,.077-.016,.165-.167,.218-.048,.047,.106,.075,.274-.099,.358-.419,.202-.861,.266-1.314,.19-.728-.123-1.241-.527-1.441-1.248-.256-.922-.18-1.788,.544-2.504,.539-.533,1.508-.709,2.207-.405,.146,.064,.165,.137,.102,.44Z"/>
    <path class="cls-2" d="M43.18,4.818c0,.428-.003,.856,0,1.284,.005,.567,.336,.798,.879,.624,.059-.019,.15-.114,.183,.013,.025,.097,.056,.212-.091,.279-.408,.186-.887,.105-1.168-.233-.182-.22-.172-.502-.175-.766-.009-.842-.012-1.685,0-2.527,.003-.186-.054-.248-.227-.239-.097,.005-.194-.002-.291,.002-.126,.005-.224,.006-.223-.177,.001-.176,.097-.167,.213-.164,.104,.002,.208-.008,.311,.002,.16,.016,.224-.039,.215-.207-.013-.234-.005-.469-.003-.704,.001-.138,.173-.279,.303-.253,.088,.018,.069,.093,.07,.15,.003,.276,.009,.553-.001,.828-.006,.149,.048,.191,.192,.185,.242-.01,.484,0,.727-.003,.114-.002,.161,.044,.161,.159,0,.116-.03,.183-.162,.18-.228-.005-.458,.009-.685-.005-.176-.011-.242,.031-.235,.224,.016,.448,.005,.897,.005,1.346h0Z"/>
    <path class="cls-2" d="M34.944,3.66c.109-.222,.218-.442,.412-.605,.279-.236,.596-.311,.949-.244,.143,.027,.234,.256,.158,.374-.027,.042-.055,.021-.087,.014-.644-.142-1.056,.082-1.295,.699-.134,.346-.182,.706-.184,1.074-.003,.614-.004,1.229,.001,1.843,.001,.137-.03,.198-.183,.198-.157,0-.181-.07-.18-.202,.003-1.249,.004-2.499,.001-3.748,0-.134,.029-.2,.183-.201,.16-.001,.182,.073,.177,.204-.007,.191-.002,.383-.002,.575,.017,.006,.033,.013,.05,.019Z"/>
    <path class="cls-2" d="M37.06,4.927c0-.621,.006-1.243-.004-1.864-.003-.166,.077-.173,.2-.177,.132-.004,.197,.019,.196,.179-.007,1.256-.006,2.512,0,3.769,0,.16-.07,.177-.199,.178-.133,.001-.198-.022-.196-.18,.009-.635,.004-1.27,.004-1.905Z"/>
    <path class="cls-2" d="M37.589,1.541c-.002,.183-.134,.318-.311,.317-.181,0-.311-.133-.31-.316,.001-.183,.133-.308,.32-.303,.176,.005,.303,.132,.301,.301Z"/>
  </g>
  <g>
    <path class="cls-2" d="M.591,4.812c0-1.332,0-2.663,0-3.995,0-.367,.144-.511,.514-.511,2.65,0,5.3,0,7.95,0,.361,0,.519,.155,.519,.514,0,2.663,0,5.326,0,7.99,0,.349-.156,.504-.507,.504-2.65,.001-5.3,.002-7.95,0-.42,0-.525-.108-.525-.527,0-1.325,0-2.65,0-3.975Zm5.209,2.505c0,.305,.005,.565-.002,.825-.003,.119,.035,.181,.153,.22,.63,.212,1.27,.245,1.909,.076,.49-.13,.837-.436,.92-.961,.088-.554-.082-1.008-.574-1.318-.24-.151-.498-.268-.758-.38-.186-.081-.366-.175-.506-.325-.174-.186-.139-.431,.075-.569,.081-.052,.168-.085,.262-.101,.413-.071,.803,.011,1.173,.191,.126,.062,.163,.052,.158-.093-.007-.202-.005-.404,0-.605,.002-.101-.026-.16-.134-.188-.634-.168-1.264-.191-1.888,.04-.415,.154-.7,.436-.778,.878-.086,.482,.027,.909,.428,1.23,.245,.196,.532,.313,.818,.435,.211,.09,.422,.181,.58,.358,.189,.213,.149,.47-.097,.611-.089,.051-.186,.078-.287,.093-.523,.078-.984-.077-1.452-.417Zm-1.652-.665c0-.544,.004-1.089-.003-1.633-.002-.133,.04-.178,.172-.171,.168,.01,.337,.006,.505,0,.194-.006,.447,.083,.566-.033,.129-.126,.019-.383,.045-.581,.021-.166-.045-.202-.2-.201-.923,.006-1.846,0-2.769,.005-.199,.001-.461-.089-.581,.043-.117,.129-.022,.386-.036,.587-.01,.138,.037,.191,.182,.186,.289-.01,.58,.007,.869-.008,.185-.01,.238,.048,.236,.233-.009,1.068-.001,2.137-.008,3.205,0,.148,.035,.206,.19,.197,.208-.012,.418-.01,.626,.001,.153,.008,.212-.03,.209-.199-.011-.544-.004-1.088-.004-1.633Z"/>
    <path class="cls-1" d="M5.801,7.317c.467,.339,.928,.495,1.452,.417,.101-.015,.198-.043,.287-.093,.246-.141,.287-.398,.097-.611-.157-.177-.369-.268-.58-.358-.286-.121-.573-.238-.818-.435-.4-.321-.513-.748-.428-1.23,.079-.442,.363-.724,.778-.878,.624-.231,1.254-.208,1.888-.04,.108,.029,.136,.088,.134,.188-.004,.202-.007,.404,0,.605,.005,.145-.032,.154-.158,.093-.37-.18-.76-.263-1.173-.191-.094,.016-.181,.05-.262,.101-.214,.137-.249,.383-.075,.569,.141,.15,.32,.244,.506,.325,.26,.113,.517,.229,.758,.38,.492,.309,.662,.764,.574,1.318-.083,.525-.431,.831-.92,.961-.639,.169-1.279,.136-1.909-.076-.118-.04-.156-.101-.153-.22,.007-.26,.002-.52,.002-.825Z"/>
    <path class="cls-1" d="M4.148,6.652c0,.544-.007,1.089,.004,1.633,.004,.168-.055,.207-.209,.199-.208-.011-.418-.013-.626-.001-.156,.009-.191-.049-.19-.197,.006-1.068,0-2.137,.008-3.205,.001-.185-.051-.243-.236-.233-.289,.015-.579-.002-.869,.008-.145,.005-.193-.048-.182-.186,.015-.2-.08-.457,.036-.587,.12-.132,.382-.042,.581-.043,.923-.005,1.846,.001,2.769-.005,.155-.001,.222,.035,.2,.201-.025,.197,.084,.454-.045,.581-.119,.117-.372,.027-.566,.033-.168,.006-.337,.009-.505,0-.132-.008-.174,.038-.172,.171,.006,.544,.003,1.089,.003,1.633Z"/>
  </g>
</svg>