<?xml version="1.0" encoding="UTF-8"?>
<svg id="logo-43" xmlns="http://www.w3.org/2000/svg" viewBox="0 0 15.674 6.168">
  <defs>
    <style>
      .cls-1 {
        fill: #fff;
      }

      .cls-2 {
        fill: #069801;
      }
    </style>
  </defs>
  <g>
    <path class="cls-2" d="M6.022,2.742c0,.054,0,.109,0,.163,0,.336,0,.671,0,1.007,0,.077-.012,.152-.088,.194-.158,.088-.343,.042-.376-.145-.006-.032-.006-.065-.006-.097,0-.496,0-.992,0-1.488,0-.093,.003-.181,.084-.252,.129-.113,.301-.133,.419,0,.188,.212,.366,.432,.543,.653,.177,.22,.349,.446,.523,.668,.011,.015,.028,.025,.056,.05,.003-.04,.006-.063,.006-.086,0-.378,0-.756,0-1.134,0-.165,.067-.233,.215-.241,.121-.007,.211,.065,.225,.192,.003,.025,.003,.05,.003,.075,0,.523,0,1.047,0,1.57,0,.047-.007,.095-.021,.14-.03,.098-.08,.131-.183,.133-.097,.001-.199,.016-.278-.059-.06-.057-.118-.119-.172-.182-.076-.09-.149-.183-.222-.276-.087-.112-.17-.227-.258-.337-.064-.081-.137-.155-.202-.235-.076-.093-.147-.189-.221-.284-.009-.011-.019-.021-.029-.032-.006,.002-.012,.003-.018,.005Z"/>
    <path class="cls-2" d="M9.967,2.826c-.161,0-.296,.001-.431-.001-.019,0-.046-.015-.055-.031-.057-.093-.107-.19-.165-.281-.015-.024-.053-.045-.081-.046-.191-.004-.381,0-.572-.003-.076-.002-.105,.045-.134,.098-.032,.059-.064,.117-.094,.177-.059,.117-.127,.23-.169,.353-.015,.044,.028,.112,.054,.164,.07,.139,.146,.276,.218,.414,.039,.075,.08,.132,.185,.123,.139-.012,.281-.009,.421,0,.081,.005,.127-.03,.162-.091,.045-.079,.086-.161,.136-.255-.033,0-.056,0-.08,0-.185-.002-.371,.002-.556-.006-.148-.007-.222-.123-.186-.267,.021-.084,.086-.113,.159-.13,.034-.008,.07-.007,.105-.007,.379,0,.757,.001,1.136,.002,.017,0,.035,.001,.062,.003-.02,.047-.035,.091-.057,.131-.062,.113-.13,.223-.191,.336-.056,.107-.104,.218-.159,.325-.047,.094-.096,.186-.147,.277-.009,.016-.038,.031-.058,.031-.364,.002-.727,.002-1.091,0-.022,0-.052-.024-.064-.045-.088-.156-.174-.313-.258-.471-.055-.105-.105-.212-.159-.317-.015-.03-.04-.055-.059-.084-.058-.086-.061-.172-.006-.263,.054-.09,.103-.184,.151-.278,.072-.139,.142-.279,.213-.417,.031-.059,.061-.12,.098-.175,.012-.018,.046-.031,.069-.031,.369-.001,.737,.002,1.106-.002,.086,0,.09,.069,.119,.114,.074,.115,.141,.235,.209,.353,.054,.093,.105,.187,.169,.301Z"/>
    <path class="cls-2" d="M11.534,3.471c.039-.048,.077-.097,.116-.145,.085-.105,.172-.209,.257-.314,.18-.222,.359-.445,.54-.666,.061-.075,.125-.148,.193-.217,.1-.102,.223-.099,.34-.044,.1,.047,.156,.13,.155,.25-.002,.521-.001,1.042,0,1.563,0,.103-.049,.182-.137,.223-.086,.04-.18,.031-.252-.037-.031-.029-.052-.072-.065-.113-.012-.037-.009-.079-.009-.119,0-.351,0-.701,0-1.052,0-.02,0-.039,0-.069-.022,.012-.04,.017-.049,.028-.065,.084-.126,.17-.191,.254-.047,.06-.097,.118-.145,.177-.178,.216-.356,.433-.534,.649-.053,.064-.103,.132-.161,.191-.112,.114-.313,.16-.449,.049-.033-.027-.048-.08-.066-.123-.009-.022-.009-.049-.009-.074,0-.533,0-1.067,0-1.6,0-.24,.209-.275,.358-.193,.037,.02,.059,.078,.075,.123,.013,.033,.007,.074,.007,.112,0,.351,0,.701,0,1.052,0,.027,0,.054,0,.081l.027,.015Z"/>
    <path class="cls-2" d="M13.991,3.099c-.19-.195-.379-.381-.557-.577-.082-.091-.143-.262-.052-.397,.053-.079,.167-.112,.256-.077,.144,.055,.233,.174,.336,.276,.127,.125,.247,.258,.394,.414,.034-.046,.06-.091,.095-.128,.091-.097,.184-.19,.278-.285,.066-.067,.128-.14,.201-.198,.131-.104,.24-.145,.367-.029,.091,.083,.105,.25,.014,.356-.134,.156-.278,.303-.418,.454-.057,.062-.115,.124-.181,.195,.13,.132,.265,.261,.389,.399,.098,.108,.216,.203,.259,.353,.046,.16-.049,.298-.213,.299-.096,0-.177-.029-.246-.103-.167-.178-.338-.35-.509-.524-.015-.016-.034-.028-.054-.044-.131,.138-.257,.274-.387,.407-.078,.08-.154,.167-.245,.23-.083,.057-.193,.052-.282,.014-.073-.032-.098-.119-.098-.2,0-.124,.057-.223,.147-.308,.087-.083,.168-.173,.252-.26,.083-.087,.166-.174,.254-.266Z"/>
    <path class="cls-2" d="M10.752,3.525c0,.128,.004,.255-.002,.383-.003,.055-.015,.117-.043,.163-.048,.079-.148,.108-.242,.069-.093-.038-.109-.134-.115-.22-.009-.137-.003-.275-.003-.413,0-.133,.002-.265,0-.398,0-.05,.012-.074,.067-.071,.092,.005,.185,.005,.278,.005,.045,0,.062,.015,.061,.061-.002,.14,0,.28,0,.42Z"/>
    <path class="cls-2" d="M10.752,2.497c0,.085-.002,.17,0,.256,.001,.049-.011,.074-.067,.072-.093-.004-.186-.002-.278,0-.041,0-.06-.013-.06-.056,.001-.178-.001-.356,.004-.533,.001-.046,.021-.093,.04-.136,.039-.091,.119-.091,.202-.087,.076,.004,.103,.064,.131,.114,.021,.037,.024,.086,.026,.13,.004,.08,.001,.16,.001,.24Z"/>
  </g>
  <g>
    <path class="cls-2" d="M5.126,3.084c0,.471,0,.942,0,1.413,0,.116-.023,.138-.128,.19-.098,.049-.188,.112-.281,.171-.086,.054-.168,.113-.256,.165-.139,.081-.28,.157-.42,.236-.045,.026-.087,.057-.132,.084-.221,.134-.442,.267-.663,.4-.183,.11-.367,.219-.55,.33-.151,.092-.189,.044-.328-.037-.104-.061-.207-.126-.31-.189-.101-.062-.202-.124-.303-.185-.038-.023-.078-.044-.117-.067-.234-.138-.47-.274-.703-.414-.262-.158-.522-.319-.783-.478-.015-.009-.031-.015-.047-.022-.073-.031-.106-.084-.106-.164C.002,3.561,.002,2.604,0,1.647c0-.083,.042-.129,.105-.167,.191-.116,.382-.232,.575-.346,.134-.079,.271-.154,.406-.231,.051-.029,.101-.062,.151-.093,.06-.037,.119-.076,.18-.111,.184-.108,.37-.212,.553-.321,.162-.097,.323-.196,.483-.298,.074-.047,.143-.049,.217-.003,.245,.151,.49,.301,.737,.448,.261,.155,.525,.303,.786,.458,.144,.086,.282,.183,.426,.269,.136,.082,.276,.156,.414,.234,.063,.036,.095,.087,.095,.163-.002,.478,0,.957,0,1.435Zm-3.402-.519c.096,.119,.184,.228,.274,.337,.108,.132,.219,.261,.325,.394,.131,.165,.257,.334,.389,.499,.152,.189,.312,.372,.461,.563,.135,.173,.306,.253,.523,.242,.152-.007,.339-.117,.339-.335-.002-.789,.002-1.578-.001-2.367,0-.104-.019-.2-.116-.283-.158-.135-.461-.073-.526,.136-.018,.059-.028,.122-.028,.184-.002,.526-.001,1.052-.002,1.578,0,.018-.003,.036-.006,.075-.033-.05-.052-.085-.077-.114-.13-.155-.263-.307-.391-.464-.155-.192-.303-.389-.457-.582-.153-.192-.308-.381-.463-.572-.039-.048-.07-.104-.115-.143-.152-.131-.327-.202-.532-.161-.139,.028-.287,.165-.285,.343,.008,.789,.003,1.578,.003,2.367,0,.035-.005,.074,.007,.104,.072,.173,.213,.268,.411,.23,.131-.025,.268-.192,.267-.348-.003-.531-.001-1.062-.001-1.593,0-.026,0-.053,0-.09Z"/>
    <path class="cls-1" d="M1.724,2.566c0,.037,0,.064,0,.09,0,.531-.002,1.062,.001,1.593,0,.156-.136,.323-.267,.348-.198,.037-.34-.058-.411-.23-.013-.03-.007-.069-.007-.104,0-.789,.004-1.578-.003-2.367-.002-.178,.146-.315,.285-.343,.205-.041,.38,.03,.532,.161,.046,.039,.077,.095,.115,.143,.154,.191,.31,.38,.463,.572,.154,.193,.302,.39,.457,.582,.127,.157,.261,.309,.391,.464,.025,.03,.043,.064,.077,.114,.003-.039,.006-.057,.006-.075,0-.526,0-1.052,.002-1.578,0-.061,.01-.125,.028-.184,.064-.209,.367-.271,.526-.136,.098,.083,.116,.179,.116,.283,.003,.789,0,1.578,.001,2.367,0,.218-.187,.328-.339,.335-.217,.01-.388-.069-.523-.242-.149-.191-.309-.374-.461-.563-.132-.164-.258-.334-.389-.499-.106-.133-.217-.262-.325-.394-.089-.109-.177-.218-.274-.337Z"/>
  </g>
</svg>