<?xml version="1.0" encoding="UTF-8"?>
<svg id="logo-43" xmlns="http://www.w3.org/2000/svg" viewBox="0 0 29.457 11.426">
  <defs>
    <style>
      .cls-1 {
        fill: #a259ff;
      }

      .cls-2 {
        fill: #ff7262;
      }

      .cls-3 {
        fill: #f34e1c;
      }

      .cls-4 {
        fill: #1cbcff;
      }

      .cls-5 {
        fill: #03d082;
      }
    </style>
  </defs>
  <g>
    <path d="M19.13,7.571c-.004-.083-.01-.143-.01-.203,0-1.103,0-2.206,0-3.309,0-.219,.004-.222,.229-.223,.056,0,.112,0,.168,0q.269,0,.342,.251c.029-.016,.062-.026,.082-.047,.466-.472,1.322-.463,1.806,.111,.142,.168,.146,.164,.307-.001,.353-.363,.77-.528,1.276-.405,.539,.131,.907,.568,.983,1.164,.018,.144,.028,.289,.028,.434,.003,.677-.001,1.355,.003,2.032,0,.135-.039,.198-.182,.184-.106-.01-.214-.01-.32,0-.16,.016-.217-.043-.215-.206,.007-.75,0-1.5,.005-2.25,.003-.56-.479-.935-1.019-.787-.306,.084-.554,.413-.553,.74,.003,.761,.003,1.522,.014,2.283,.002,.163-.051,.211-.211,.211-.478-.001-.478,.005-.478-.464,0-.621-.001-1.243,0-1.864,0-.311-.133-.545-.39-.714-.41-.271-1.089,.05-1.154,.575-.011,.089-.014,.179-.014,.268-.001,.683-.003,1.366,.002,2.049,.001,.131-.037,.181-.172,.173-.171-.01-.343-.002-.527-.002Z"/>
    <path d="M17.299,6.818c-.167,.102-.28,.183-.403,.244-.619,.305-1.345,.165-1.809-.342-.663-.726-.634-1.889,.066-2.578,.529-.521,1.434-.589,1.961-.143,.041,.034,.093,.054,.141,.082,.099-.269,.099-.271,.407-.268,.376,.003,.343-.055,.344,.338,0,1.03,0,2.06,0,3.09,0,1.329-1.265,2.214-2.513,1.76-.005-.002-.011-.002-.016-.005-.361-.171-.317-.153-.149-.43,.06-.099,.104-.245,.192-.281,.08-.033,.21,.051,.317,.088,.685,.237,1.431-.277,1.462-1.051,.006-.154,0-.308,0-.503Zm0-1.348c0-.034,0-.067,0-.101-.007-.4-.199-.7-.545-.874-.355-.178-.714-.147-1.043,.097-.376,.279-.435,.673-.384,1.095,.068,.559,.602,.933,1.15,.838,.474-.082,.852-.488,.822-1.055Z"/>
    <path d="M28.193,7.124c-.186,.116-.346,.242-.526,.324-.835,.381-1.785,.076-2.257-.714-.492-.824-.364-1.896,.305-2.544,.61-.591,1.604-.646,2.279-.127,.056,.043,.116,.079,.195,.132,.011-.121,.008-.217,.032-.306,.013-.047,.071-.108,.115-.114,.116-.016,.235-.006,.353-.006q.227,0,.228,.222c0,.913,0,1.826,0,2.739,0,.207-.004,.415,.001,.622,.003,.11-.043,.152-.149,.148-.129-.004-.259-.006-.387,.001-.131,.008-.188-.042-.176-.175,.005-.064-.008-.13-.013-.201Zm.013-1.417c0-.05,0-.1,0-.151,.003-.478-.337-.939-.812-1.1-.483-.163-1.035,.005-1.332,.387-.246,.315-.277,.671-.254,1.047,.044,.72,.809,1.255,1.504,1.055,.536-.154,.911-.596,.894-1.239Z"/>
    <path d="M9.63,4.199c.471,0,.92-.003,1.369,0,.437,.004,.358-.013,.36,.343,.002,.363,.053,.334-.33,.334-.41,0-.82,.004-1.23-.002-.14-.002-.186,.048-.185,.186,.005,.762-.002,1.523,.005,2.285,.002,.162-.049,.211-.211,.209-.5-.007-.5,0-.5-.504,0-1.613,0-3.226,0-4.839q0-.236,.242-.236c.831,0,1.662,0,2.493,0,.227,0,.233,0,.232,.217-.001,.557,.069,.46-.455,.465-.522,.005-1.045,0-1.567,.001q-.238,0-.239,.245c0,.353,0,.706,0,1.059,0,.072,.008,.143,.013,.235Z"/>
    <path d="M13.511,5.682c0,.57-.003,1.141,.003,1.711,.001,.126-.038,.17-.163,.161-.123-.009-.247-.009-.37,0-.123,.009-.15-.043-.15-.156,.003-1.141,.004-2.282,0-3.422,0-.126,.038-.17,.163-.161,.123,.009,.247,.009,.37,0,.123-.009,.151,.044,.15,.156-.004,.57-.002,1.141-.002,1.711Z"/>
    <path d="M12.726,2.655c.005-.254,.229-.466,.483-.456,.246,.009,.444,.203,.441,.434-.003,.268-.249,.497-.52,.484-.209-.01-.409-.238-.405-.461Z"/>
  </g>
  <g>
    <circle class="cls-4" cx="6.218" cy="5.866" r="1.984"/>
    <path class="cls-3" d="M4.234,.114H2.205C1.182,.114,.352,.944,.352,1.966H.352c0,1.058,.858,1.916,1.916,1.916h1.962c-.007-.948-.006-2.473,.004-3.769Z"/>
    <path class="cls-1" d="M4.234,3.853H2.205c-1.023,0-1.852,.829-1.852,1.852H.352c0,1.058,.858,1.916,1.916,1.916h1.962c-.007-.948-.006-2.473,.004-3.769Z"/>
    <path class="cls-5" d="M4.234,7.622H2.205c-1.023,0-1.852,.829-1.852,1.852H.352c0,1.058,.858,1.916,1.916,1.916h0c1.081,0,1.957-.874,1.958-1.955,0-.602,.003-1.231,.008-1.813Z"/>
    <path class="cls-2" d="M4.234,.114h2.03c1.023,0,1.852,.829,1.852,1.852h0c0,1.058-.858,1.916-1.916,1.916h-1.962c.007-.948,.006-2.473-.004-3.769Z"/>
  </g>
</svg>