<?xml version="1.0" encoding="UTF-8"?>
<svg id="logo-43" xmlns="http://www.w3.org/2000/svg" viewBox="0 0 21.373 11.234">
  <defs>
    <style>
      .cls-1 {
        fill: #00618a;
      }

      .cls-2 {
        fill: #e48e00;
      }
    </style>
  </defs>
  <g>
    <path class="cls-1" d="M5.567,11.067v-.45c.049,0,.089,0,.128,0,.664,0,1.329,.002,1.993-.002,.097,0,.197-.025,.291-.054,.12-.038,.184-.125,.178-.258-.003-.072,0-.143,0-.231-.049,0-.089,0-.128,0-.461,0-.922,.003-1.384-.001-.264-.002-.519-.051-.754-.181-.226-.125-.349-.302-.342-.574,.012-.46,.005-.921,.005-1.382,0-.016,.002-.033,.003-.055h.664c.002,.04,.006,.08,.006,.12,0,.433,0,.867,0,1.3,0,.239,.075,.353,.312,.36,.536,.016,1.072,.005,1.618,.005,.003-.048,.008-.092,.008-.135,0-.509,0-1.018,0-1.527,0-.133,0-.134,.138-.134,.175,0,.35,0,.542,0,0,.045,0,.081,0,.117,0,.753,0,1.506,0,2.259,0,.368-.148,.584-.498,.708-.138,.049-.283,.078-.425,.116h-2.355Z"/>
    <path class="cls-1" d="M4.962,10.088h-.675v-2.696c-.011-.003-.021-.006-.032-.009-.017,.033-.035,.066-.05,.099-.332,.739-.679,1.472-.989,2.22-.198,.477-.623,.486-.975,.38-.138-.042-.225-.154-.284-.283-.229-.507-.457-1.014-.685-1.521-.122-.272-.245-.545-.367-.817-.013-.029-.028-.057-.042-.086-.008,.003-.017,.005-.025,.008v2.703H.161c0-.042,0-.082,0-.122,0-.829,.006-1.657-.002-2.486-.005-.475,.144-.558,.567-.632,.167-.029,.337-.02,.494,.06,.156,.079,.248,.211,.315,.368,.316,.735,.633,1.469,.95,2.203,.016,.036,.033,.072,.058,.126,.024-.048,.041-.077,.054-.108,.323-.724,.654-1.445,.966-2.174,.166-.389,.442-.549,.904-.462,.01,.002,.02,.003,.031,.005,.365,.077,.465,.199,.465,.573,0,.842,0,1.685,0,2.527,0,.038,0,.075,0,.126Z"/>
  </g>
  <path class="cls-2" d="M15.939,9.965c.216,.196,.425,.387,.655,.597-.265,0-.503,.002-.742-.003-.028,0-.058-.033-.084-.055-.126-.112-.256-.22-.373-.34-.081-.083-.168-.097-.277-.094-.429,.012-.859,.022-1.288,.017-.207-.002-.405-.072-.584-.18-.212-.128-.315-.321-.317-.566-.002-.543,0-1.086,0-1.629,0-.358,.146-.586,.483-.695,.187-.06,.387-.099,.583-.106,.443-.015,.887-.008,1.331-.003,.222,.002,.437,.049,.637,.147,.242,.118,.383,.307,.383,.585,0,.581,0,1.162-.001,1.742,0,.247-.108,.427-.332,.536-.021,.01-.04,.025-.073,.047Zm-1.681-.83c.253,0,.483-.002,.713,.002,.036,0,.078,.026,.106,.051,.132,.115,.262,.233,.389,.354,.055,.053,.098,.047,.149,0,.086-.08,.119-.181,.119-.296,0-.478-.009-.955,.003-1.433,.008-.346-.195-.455-.442-.464-.402-.015-.805-.013-1.207-.001-.308,.009-.435,.155-.435,.462,0,.471,0,.942,0,1.412,0,.254,.124,.405,.377,.425,.236,.019,.473,.014,.71,.018,.017,0,.034-.013,.067-.026-.185-.169-.359-.329-.551-.505Z"/>
  <path class="cls-2" d="M11.338,6.904c.344,0,.688,.002,1.032-.002,.085-.001,.118,.025,.111,.111-.006,.072-.007,.145,0,.216,.009,.095-.032,.115-.119,.114-.63-.003-1.259,0-1.889,0-.031,0-.062,0-.093,.004-.239,.03-.307,.107-.311,.349,0,.048,0,.096,0,.144,.001,.316,.124,.442,.444,.446,.323,.004,.647-.005,.97,.004,.276,.008,.536,.08,.763,.245,.143,.104,.22,.239,.211,.422-.007,.137-.003,.275,0,.412,.003,.203-.084,.357-.246,.472-.225,.16-.481,.241-.754,.244-.654,.008-1.307,.002-1.961,.004-.075,0-.108-.019-.102-.098,.006-.079,.006-.158,0-.237-.007-.082,.023-.106,.105-.106,.492,.003,.984,.003,1.476,0,.168,0,.338,0,.503-.023,.218-.031,.308-.15,.308-.366,0-.083,0-.165,0-.248,.001-.133-.062-.229-.184-.269-.099-.033-.207-.054-.311-.057-.258-.008-.516,.003-.774-.004-.262-.007-.52-.049-.757-.171-.232-.12-.379-.291-.352-.573,.01-.102,.005-.206,.002-.309-.009-.31,.151-.513,.427-.612,.171-.062,.358-.098,.54-.108,.319-.017,.64-.005,.96-.005v-.002Z"/>
  <path class="cls-2" d="M16.812,8.144c0-.378,.002-.756-.002-1.134,0-.079,.02-.111,.104-.108,.148,.006,.296,.007,.444,0,.093-.004,.124,.024,.123,.121-.004,.711,.003,1.423-.005,2.134-.004,.329,.066,.483,.496,.491,.561,.01,1.122,.003,1.682,.003q.217,0,.217,.219t-.217,.219c-.533,0-1.067,.003-1.6-.001-.265-.002-.528-.033-.776-.136-.318-.132-.465-.352-.466-.694,0-.371,0-.742,0-1.114Z"/>
  <path class="cls-2" d="M20.716,9.131c.284,0,.501,.211,.498,.491-.003,.297-.212,.498-.502,.504-.276,.006-.493-.225-.493-.503,0-.281,.213-.493,.497-.493Zm.411,.493c0-.232-.18-.418-.406-.421-.231-.003-.415,.184-.415,.422,0,.235,.176,.417,.405,.418,.235,.001,.416-.181,.416-.419Z"/>
  <g>
    <path class="cls-1" d="M20.824,6.259c-.375,.074-.751,.148-1.155,.228,.058,.072,.092,.133,.143,.173,.103,.08,.211,.153,.323,.22,.269,.161,.501,.362,.698,.605,.083,.102,.171,.199,.257,.299l-.024,.027c-.013-.006-.029-.009-.039-.018-.255-.236-.549-.409-.865-.552-.287-.131-.548-.304-.743-.558-.054-.07-.087-.155-.136-.229-.052-.08-.015-.118,.057-.147,.32-.126,.652-.19,.997-.187,.048,0,.095,0,.18,0-.051-.06-.076-.105-.114-.131-.447-.306-.868-.658-1.417-.778-.199-.043-.338-.157-.423-.342-.221-.48-.455-.955-.662-1.441-.209-.491-.501-.924-.864-1.309-.453-.482-.971-.877-1.606-1.088-.185-.061-.391-.067-.589-.081-.1-.007-.177-.04-.25-.102-.227-.192-.493-.311-.772-.401-.042-.013-.088-.018-.132-.017-.114,.004-.193,.095-.155,.201,.042,.117,.095,.24,.175,.333,.299,.353,.504,.748,.623,1.195,.082,.307,.209,.596,.446,.824,.07,.067,.099,.154,.066,.255-.061,.189-.131,.377-.173,.57-.104,.476-.069,.943,.138,1.389,.038,.081,.099,.158,.166,.217,.074,.065,.109,.041,.122-.057,.02-.163,.041-.327,.066-.49,.036-.23,.161-.412,.329-.588,.255,.694,.61,1.325,1.073,1.897-.454-.341-.856-.721-1.046-1.28l-.037,.016c-.028,.171-.056,.342-.084,.513-.021,.129-.071,.239-.205,.285-.14,.048-.259-.001-.357-.099-.239-.238-.345-.541-.4-.864-.066-.389-.042-.773,.073-1.151,.038-.124,.075-.249,.104-.375,.007-.031-.005-.08-.027-.102-.212-.218-.327-.49-.43-.767-.068-.183-.127-.37-.185-.556-.073-.233-.242-.405-.374-.6-.099-.147-.215-.292-.272-.456-.114-.324,.118-.6,.459-.572,.351,.029,.652,.186,.924,.397,.106,.082,.21,.124,.345,.129,.355,.012,.689,.105,.998,.288,.794,.47,1.452,1.079,1.917,1.878,.153,.262,.253,.555,.382,.831,.162,.345,.33,.687,.493,1.032,.053,.111,.129,.182,.25,.225,.573,.207,1.051,.565,1.499,.966,.097,.087,.169,.202,.252,.304l-.02,.04Z"/>
    <path class="cls-1" d="M14.879,1.511c.187-.046,.283-.003,.361,.161,.048,.1,.015,.211-.079,.281-.093-.145-.186-.291-.282-.442Z"/>
  </g>
  <path class="cls-2" d="M20.905,9.914c-.026-.024-.057-.045-.078-.073-.034-.047-.056-.103-.094-.146-.02-.023-.064-.037-.096-.034-.016,.001-.035,.049-.039,.077-.008,.053-.007,.108-.009,.162-.013,0-.027,.001-.04,.002-.007-.025-.019-.051-.019-.076-.002-.134,.001-.267-.002-.401-.001-.061,.02-.089,.083-.084,.065,.005,.13,.003,.194,.01,.079,.01,.135,.05,.14,.137,.005,.079-.033,.13-.111,.151-.009,.003-.017,.011-.04,.026,.045,.074,.09,.148,.134,.221-.008,.009-.016,.018-.025,.028Zm-.22-.322c.095-.005,.178,.006,.173-.098-.006-.116-.107-.083-.174-.095-.077-.014-.086,.035-.09,.1-.006,.097,.05,.097,.091,.093Z"/>
</svg>