<?xml version="1.0" encoding="UTF-8"?>
<svg id="logo-43" xmlns="http://www.w3.org/2000/svg" viewBox="0 0 70.033 14.192">
  <defs>
    <style>
      .cls-1 {
        fill: #0079cc;
      }

      .cls-2 {
        fill: #1986cd;
      }
    </style>
  </defs>
  <g>
    <path class="cls-1" d="M10.336,0c.314,.131,.595,.247,.876,.364,.828,.344,1.654,.689,2.484,1.028,.123,.05,.172,.113,.172,.253-.005,3.634-.005,7.268-.001,10.902,0,.149-.043,.222-.183,.279-1.078,.441-2.153,.893-3.231,1.335-.082,.033-.195,.041-.278,.013-1.334-.442-2.665-.889-3.996-1.338-1.487-.501-2.973-1.006-4.459-1.507-.574-.194-1.149-.383-1.719-.604,.274,.041,.548,.082,.822,.123,.799,.117,1.599,.232,2.398,.35,.697,.103,1.392,.212,2.089,.315,.637,.094,1.275,.182,1.912,.277,.534,.079,1.068,.164,1.602,.246,.458,.07,.916,.14,1.374,.21,.083,.013,.142-.007,.137-.108-.002-.049,0-.099,0-.148,0-3.902,0-7.805,0-11.707,0-.085,0-.17,0-.283Z"/>
    <path class="cls-1" d="M.587,8.066c.652-.658,1.299-1.311,1.967-1.984-.69-.68-1.346-1.326-2.019-1.989,.255-.087,.493-.173,.734-.246,.032-.01,.085,.037,.123,.065,.579,.433,1.16,.863,1.732,1.304,.125,.097,.192,.081,.297-.023,1.009-1.004,2.023-2.003,3.034-3.004,.065-.064,.116-.114,.224-.066,.551,.243,1.104,.48,1.66,.71,.127,.052,.168,.12,.167,.256-.005,1.984-.005,3.968,0,5.951,0,.154-.054,.22-.188,.276-.581,.239-1.159,.489-1.799,.762-.356-.374-.723-.773-1.105-1.156-.665-.667-1.342-1.323-2.008-1.99-.1-.101-.166-.101-.273-.019-.574,.438-1.152,.873-1.734,1.301-.058,.043-.163,.057-.234,.039-.205-.053-.404-.129-.578-.187Zm5.99-3.676c-.013-.011-.027-.021-.04-.032-.752,.566-1.504,1.132-2.274,1.711,.776,.583,1.531,1.151,2.314,1.74v-3.419Z"/>
  </g>
  <g>
    <path class="cls-2" d="M46.736,9.356c-1.002,.675-1.892,.282-2.001-.858-.048-.499-.045-1.041,.101-1.512,.309-.995,.883-1.166,1.898-.538,0-.387,0-.69,0-.992,0-.226,.013-.452-.002-.677-.023-.327,.095-.461,.441-.46,.337,.001,.399,.149,.397,.443-.01,1.467,.001,2.935-.012,4.402-.002,.198-.049,.51-.172,.57-.283,.138-.555,.016-.648-.378Zm-.015-1.389c0-.257,.065-.539-.019-.765-.077-.206-.294-.45-.489-.492-.152-.033-.508,.203-.525,.349-.068,.576-.077,1.167-.017,1.743,.014,.138,.382,.34,.576,.329,.166-.01,.385-.258,.456-.447,.079-.211,.018-.476,.019-.717Z"/>
    <path class="cls-2" d="M64.742,6.449c0-.602,.005-1.108-.002-1.614-.004-.3,.012-.52,.427-.522,.429-.002,.408,.235,.406,.525-.006,1.466-.004,2.932-.006,4.397,0,.157-.015,.315-.03,.605-.329-.115-.59-.206-.981-.342-.314,.237-.841,.465-1.301-.016-.256-.268-.442-.671-.504-1.039-.075-.444-.064-.937,.049-1.372,.264-1.016,.9-1.241,1.942-.622Zm-.007,1.364c.005-.082,.037-.275,.022-.465-.028-.349-.182-.633-.566-.665-.354-.03-.538,.211-.556,.53-.029,.502-.031,1.008-.004,1.51,.017,.328,.249,.462,.571,.438,.351-.026,.511-.236,.53-.565,.013-.224,.003-.448,.003-.783Z"/>
    <path class="cls-2" d="M35.056,8.333c.419-.028,.842-.268,.948,.428,.054,.357,.447,.475,.781,.387,.233-.061,.573-.23,.609-.404,.056-.268-.053-.613-.197-.866-.094-.165-.372-.228-.571-.33-.286-.146-.59-.261-.858-.434-.743-.48-.843-1.315-.256-1.984,.728-.83,2.256-.609,2.66,.4,.061,.152-.004,.515-.047,.521-.245,.034-.521,.153-.713-.19-.125-.223-.355-.449-.589-.531-.291-.103-.644-.021-.749,.342-.1,.346-.115,.718,.277,.93,.324,.175,.658,.333,.991,.492,.998,.477,1.067,1.064,.878,1.888-.138,.601-1.069,.973-1.818,.804-.917-.207-1.207-.508-1.345-1.454Z"/>
    <path class="cls-2" d="M58.567,8.339c-.073,1.004-.618,1.513-1.586,1.512-.912-.001-1.648-.596-1.693-1.441-.042-.786-.023-1.576-.003-2.364,.025-.993,1.145-1.575,1.964-1.392,.631,.142,1.123,.392,1.271,1.061,.03,.137-.074,.434-.118,.434-.242,0-.567,.186-.694-.208-.196-.606-.299-.668-.923-.632-.482,.028-.65,.382-.67,.75-.043,.785-.052,1.578,.012,2.361,.049,.597,.48,.862,1.07,.726,.174-.04,.38-.206,.455-.368,.244-.531,.223-.54,.914-.44Z"/>
    <path class="cls-2" d="M19.35,4.782c-.438,1.542-.879,3.081-1.31,4.623-.077,.276-.219,.381-.516,.37-.297-.011-.51-.03-.606-.38-.42-1.529-.862-3.053-1.296-4.576,.697-.238,.828-.175,.975,.454,.27,1.148,.535,2.297,.903,3.457,.04-.109,.093-.215,.119-.327,.245-1.028,.48-2.058,.728-3.085,.168-.694,.191-.7,1.003-.536Z"/>
    <path class="cls-2" d="M28.397,7.222c.049-.782,.505-1.158,1.225-1.161,.771-.003,1.273,.389,1.29,1.062,.023,.883,.006,1.767,.006,2.678-.547,.149-.616,.117-.825-.377-.365,.136-.723,.379-1.079,.376-.514-.004-.843-.488-.833-1.004,.011-.578,.408-1.002,1.024-1.087,.111-.015,.232,.02,.337-.01,.191-.055,.54-.171,.533-.211-.046-.265-.103-.594-.286-.753-.211-.184-.434-.002-.634,.224-.14,.159-.453,.165-.758,.261Zm.671,1.427c-.003,.389,.085,.502,.4,.513,.39,.014,.636-.272,.648-.715,.008-.295-.077-.439-.406-.428-.453,.017-.638,.177-.642,.629Z"/>
    <path class="cls-2" d="M43.981,9.762c-.541,.247-.722-.018-.785-.478-.094,.054-.16,.072-.194,.115-.272,.341-.59,.523-1.044,.377-.488-.157-.674-.56-.703-.991-.054-.786-.021-1.577-.033-2.366-.004-.28,.134-.353,.391-.354,.266,0,.433,.053,.428,.367-.011,.644-.028,1.29,.009,1.932,.015,.254,.094,.582,.269,.734,.364,.318,.828,.042,.843-.48,.02-.692,.013-1.385,.001-2.077-.005-.293,.016-.483,.4-.485,.368-.002,.425,.154,.421,.464-.012,1.091-.005,2.182-.005,3.243Z"/>
    <path class="cls-2" d="M26.8,9.244c-.082,.038-.195,.054-.242,.118-.272,.371-.587,.561-1.07,.409-.505-.159-.652-.597-.682-.999-.064-.863-.02-1.734-.02-2.597,.688-.239,.795-.164,.796,.54,.001,.579-.022,1.16,.018,1.737,.023,.334,.037,.748,.572,.711,.377-.026,.545-.223,.543-.592-.004-.692,.01-1.384-.008-2.075-.008-.301,.064-.441,.399-.435,.318,.006,.423,.125,.419,.433-.012,.949-.006,1.899-.005,2.848,0,.263,.03,.587-.365,.493-.165-.039-.28-.289-.418-.443,.021-.049,.041-.097,.062-.146Z"/>
    <path class="cls-2" d="M49.967,7.937c.093-.368,.127-.765,.29-1.098,.324-.661,.845-.886,1.555-.768,.556,.092,1.104,.677,1.156,1.334,.035,.441,.021,.906-.085,1.332-.175,.701-.841,1.171-1.436,1.115-.762-.072-1.308-.626-1.392-1.416-.017-.16-.016-.321-.024-.482-.022-.006-.043-.011-.065-.017Zm2.25-.08c-.068-.252-.11-.595-.252-.89-.2-.413-.721-.411-.916,0-.288,.606-.304,1.254-.031,1.864,.072,.162,.376,.311,.566,.302,.164-.008,.381-.218,.46-.392,.109-.24,.11-.528,.173-.885Z"/>
    <path class="cls-2" d="M62.297,7.982c-.16,.441-.239,.938-.497,1.311-.591,.855-1.938,.682-2.371-.28-.302-.67-.291-1.378-.034-2.058,.252-.664,.722-.931,1.429-.893,.617,.034,1.088,.421,1.262,1.072,.07,.26,.087,.535,.128,.803,.028,.015,.055,.03,.083,.045Zm-2.285-.07c.047,.274,.045,.564,.156,.802,.086,.184,.314,.416,.48,.417,.196,.001,.546-.206,.563-.353,.064-.56,.058-1.136-.007-1.697-.017-.152-.337-.378-.51-.371-.181,.007-.417,.221-.512,.405-.119,.232-.118,.525-.17,.799Z"/>
    <path class="cls-2" d="M68.776,9.005c.278,.339,.165,.516-.182,.666-1.166,.507-2.231-.111-2.272-1.381-.016-.497,.049-1.035,.232-1.493,.257-.644,.838-.862,1.515-.723,.478,.098,.923,.663,.983,1.25,.079,.762,.052,.791-.709,.789-.306,0-.612,0-.919,.001-.264,.001-.326,.141-.277,.381,.114,.562,.571,.808,1.233,.645,.137-.034,.268-.091,.396-.135Zm-1.679-1.422c.333,.022,.584,.037,.835,.056,.031,.002,.066,.038,.089,.029,.068-.026,.19-.083,.186-.098-.083-.288-.102-.658-.296-.834-.226-.205-.516-.004-.651,.27-.075,.152-.095,.33-.162,.577Z"/>
    <path class="cls-2" d="M21.483,8.694c.375,.013,.708-.181,.885,.314,.05,.141,.429,.201,.664,.222,.092,.008,.301-.209,.286-.293-.035-.197-.128-.436-.279-.548-.267-.197-.598-.307-.897-.463-.352-.184-.581-.447-.555-.88,.027-.439,.268-.735,.65-.877,.556-.208,1.121-.187,1.589,.221,.172,.15,.256,.401,.399,.638-.445,.188-.696,.115-.947-.173-.122-.14-.374-.226-.566-.225-.107,0-.315,.251-.295,.355,.036,.189,.17,.407,.33,.514,.304,.203,.669,.314,.985,.503,.616,.369,.627,1.151,.038,1.556-.782,.539-1.883,.283-2.221-.52-.035-.083-.035-.18-.065-.343Z"/>
    <path class="cls-2" d="M32.651,9.763c-.242,0-.429,.04-.584-.013-.123-.042-.296-.197-.297-.303-.019-1.607-.01-3.213-.017-4.82-.001-.329,.21-.309,.423-.297,.209,.011,.478-.075,.477,.296-.004,1.685-.002,3.37-.002,5.137Z"/>
    <path class="cls-2" d="M38.744,6.122c.149-.039,.283-.074,.363-.094,.265-.3-.239-.936,.513-.926,.722,.009,.219,.609,.493,.912,.278,.038,.55,.169,.325,.629-.118,.015-.256,.033-.428,.056,0,.675-.023,1.334,.016,1.99,.01,.166,.221,.319,.333,.482,.082,.119,.223,.253,.211,.367-.011,.106-.174,.251-.295,.283-.536,.142-1.048-.275-1.065-.879-.021-.725-.005-1.45-.005-2.205-.156-.04-.302-.078-.461-.119v-.495Z"/>
    <path class="cls-2" d="M19.946,7.892c0-.498,.015-.996-.004-1.492-.014-.354,.209-.337,.441-.334,.222,.003,.465-.049,.462,.313-.008,1.027-.007,2.054,0,3.081,.003,.365-.248,.297-.466,.307-.241,.011-.45,.011-.439-.334,.017-.513,.004-1.027,.005-1.541Z"/>
    <path class="cls-2" d="M49.303,9.762c-.26,0-.445,.035-.606-.012-.113-.034-.274-.178-.276-.275-.02-1.029-.009-2.059-.014-3.089-.002-.307,.197-.358,.417-.309,.169,.037,.455,.155,.458,.244,.031,1.122,.021,2.245,.021,3.442Z"/>
    <path class="cls-2" d="M20.422,5.011c-.258,.007-.491,.03-.486-.349,.005-.345,.209-.334,.445-.336,.251-.003,.476-.026,.471,.353-.005,.345-.201,.345-.43,.333Z"/>
    <path class="cls-2" d="M48.725,5.099c-.105-.14-.27-.266-.304-.422-.081-.367,.199-.35,.448-.351,.237,0,.436-.008,.441,.334,.005,.372-.215,.366-.585,.439Z"/>
  </g>
</svg>