<?xml version="1.0" encoding="UTF-8"?>
<svg id="logo-43" xmlns="http://www.w3.org/2000/svg" viewBox="0 0 22.511 7.191">
  <g>
    <path d="M3.044,2.595c.586,0,1.172,0,1.759,0q.058,0,.058,.056c0,.881-.002,1.762,.002,2.643,0,.16-.172,.366-.351,.35-.107-.009-.216-.002-.325-.002q-.05,0-.05,.052c0,.291,.002,.582,0,.874-.002,.158-.065,.289-.202,.373-.196,.119-.438,.038-.538-.176-.032-.068-.045-.139-.045-.213,0-.287,0-.575,.001-.862,0-.039-.012-.048-.048-.047-.173,.002-.346,.002-.519,0-.035,0-.044,.011-.043,.044,.001,.29,.001,.58,0,.87,0,.106-.028,.204-.094,.289-.179,.229-.512,.191-.641-.071-.036-.073-.05-.151-.05-.231,0-.284,0-.567,0-.851q0-.049-.049-.049c-.105,0-.209-.004-.314,0-.148,.007-.244-.068-.319-.183-.032-.049-.045-.104-.045-.163,0-.882,0-1.765,0-2.647,0-.055,0-.055,.055-.055,.586,0,1.172,0,1.759,0Z"/>
    <path d="M2.184,.957c-.059-.102-.115-.2-.171-.298-.042-.073-.085-.146-.125-.221-.007-.013-.008-.034-.003-.049,.003-.009,.025-.02,.033-.016,.016,.008,.033,.022,.042,.037,.094,.16,.188,.32,.279,.481,.015,.026,.027,.032,.055,.02,.273-.115,.558-.161,.853-.147,.225,.01,.441,.059,.648,.146,.031,.013,.044,.007,.061-.021,.088-.156,.179-.31,.268-.466,.004-.008,.009-.015,.013-.022,.014-.025,.034-.038,.062-.022,.027,.016,.019,.039,.006,.062-.089,.154-.178,.308-.267,.462-.01,.017-.019,.034-.03,.053,.046,.026,.091,.05,.134,.077,.411,.255,.684,.61,.778,1.09,.015,.077,.017,.156,.025,.233,.003,.031-.01,.04-.041,.04-1.173,0-2.345,0-3.518,0-.036,0-.044-.012-.042-.045,.015-.381,.154-.711,.408-.994,.142-.158,.309-.284,.497-.383,.01-.005,.019-.011,.034-.018Zm1.713,.839c.093,0,.169-.073,.169-.163,0-.088-.075-.164-.164-.164-.094,0-.166,.07-.167,.163,0,.091,.071,.163,.162,.164Zm-1.704,0c.092,0,.165-.072,.165-.162,0-.092-.074-.166-.166-.165-.093,0-.166,.074-.165,.166,0,.09,.074,.161,.166,.161Z"/>
    <path d="M1.033,3.783c0,.267,0,.535,0,.802,0,.132-.046,.247-.145,.336-.181,.163-.45,.116-.575-.098-.044-.076-.065-.158-.065-.246,0-.532,0-1.065,0-1.597,0-.14,.048-.261,.157-.353,.195-.164,.482-.089,.588,.154,.028,.064,.04,.13,.04,.199,0,.267,0,.535,0,.802Z"/>
    <path d="M5.06,3.779c0-.277-.002-.555,0-.832,.001-.128,.054-.238,.153-.319,.19-.155,.452-.099,.571,.12,.037,.068,.056,.141,.056,.218,0,.542,0,1.085,0,1.627,0,.186-.113,.352-.274,.407-.197,.068-.41-.044-.482-.257-.017-.052-.025-.109-.026-.165-.003-.266-.001-.532-.001-.799h0Z"/>
  </g>
  <g>
    <path d="M13.918,3.065c0-.076,0-.142,0-.207,0-.211,.002-.423-.001-.634,0-.054,.018-.069,.069-.069,.153,.003,.306,0,.459,0,.09,0,.09,0,.09,.089,0,.652,0,1.304,0,1.957,0,.334,0,.668,0,1.002,0,.082,0,.082-.084,.082-.153,0-.306-.003-.459,.002-.064,.002-.082-.02-.075-.079,.004-.033,0-.067,0-.111-.031,.023-.052,.04-.075,.056-.309,.221-.648,.234-.99,.112-.477-.171-.74-.521-.798-1.024-.039-.339,.029-.652,.23-.932,.315-.441,.911-.564,1.302-.429,.093,.032,.178,.092,.265,.14,.02,.011,.038,.027,.066,.047Zm0,1.026c0-.109,0-.217,0-.326,0-.019-.002-.043-.013-.056-.123-.145-.27-.254-.465-.277-.223-.026-.423,.018-.582,.192-.158,.173-.207,.374-.178,.602,.033,.257,.305,.521,.562,.536,.264,.016,.485-.072,.653-.28,.014-.017,.021-.043,.022-.065,.002-.109,0-.217,.001-.326Z"/>
    <path d="M21.567,3.064c0-.28,0-.544,0-.807,0-.02-.005-.042,.002-.06,.007-.016,.026-.039,.039-.039,.179-.003,.358-.003,.537,0,.014,0,.031,.027,.04,.045,.006,.013,.001,.032,.001,.048,0,.984,0,1.968,0,2.952q0,.083-.082,.083c-.159,0-.318-.002-.477,0-.048,0-.065-.016-.062-.063,.003-.036,0-.072,0-.115-.015,.007-.026,.009-.035,.015-.3,.238-.639,.263-.989,.154-.499-.155-.801-.559-.842-1.08-.025-.328,.044-.627,.237-.895,.324-.449,.938-.565,1.332-.414,.081,.031,.155,.084,.231,.128,.019,.011,.035,.025,.064,.047Zm0,1.026c0-.074-.009-.15,.002-.223,.018-.121-.035-.2-.123-.273-.213-.176-.455-.226-.706-.127-.389,.153-.52,.604-.342,.942,.115,.218,.297,.355,.555,.354,.231,0,.429-.081,.577-.265,.019-.024,.035-.059,.036-.089,.004-.106,.002-.213,.002-.32Z"/>
    <path d="M8.565,3.049c0-.038-.003-.083,.002-.126,.002-.016,.021-.043,.032-.044,.191-.003,.382-.002,.578-.002,.002,.031,.006,.057,.006,.082,0,.749,0,1.498,0,2.246,0,.08,0,.08-.079,.08-.161,0-.322-.001-.483,0-.041,0-.059-.012-.056-.055,.003-.04,0-.08,0-.127-.013,.006-.022,.008-.029,.013-.315,.254-.669,.274-1.032,.148-.508-.175-.809-.622-.813-1.16-.003-.419,.139-.774,.472-1.03,.322-.247,.693-.315,1.085-.193,.111,.034,.209,.108,.317,.165Zm0,1.044c0-.072-.008-.146,.002-.217,.018-.125-.035-.208-.127-.283-.22-.178-.467-.226-.723-.116-.39,.167-.521,.66-.277,1.007,.109,.155,.255,.265,.453,.277,.256,.015,.476-.065,.641-.269,.017-.021,.03-.052,.031-.079,.004-.107,.001-.213,.001-.32Z"/>
    <path d="M16.042,4.083c.003-.753,.576-1.258,1.252-1.263,.797-.006,1.268,.602,1.285,1.204,.024,.816-.62,1.295-1.204,1.311-.869,.024-1.346-.639-1.333-1.251Zm1.277-.667c-.355-.006-.643,.287-.652,.661-.008,.368,.278,.675,.638,.683,.347,.008,.643-.296,.648-.666,.005-.368-.279-.672-.635-.678Z"/>
    <path d="M11.163,4.568c0-.219,.004-.439-.001-.658-.006-.237-.164-.413-.407-.465-.223-.048-.467,.061-.559,.261-.031,.067-.049,.147-.049,.221-.005,.433-.003,.865-.001,1.298,0,.054-.014,.074-.071,.073-.165-.003-.33-.003-.495,0-.049,0-.068-.013-.068-.064,.001-.425-.006-.85,.002-1.274,.013-.65,.575-1.162,1.218-1.118,.563,.039,1.037,.549,1.041,1.125,.003,.421,0,.841,.002,1.262,0,.053-.015,.07-.068,.069-.159-.003-.318-.003-.477,0-.049,0-.067-.015-.066-.065,.002-.221,0-.443,0-.664h0Z"/>
    <path d="M14.812,4.534c0-.219-.004-.439,0-.658,.011-.557,.39-.97,.945-1.034,.062-.007,.124-.01,.186-.015,.037-.003,.056,.01,.055,.051-.001,.169-.001,.338,0,.507,0,.04-.018,.049-.054,.054-.073,.009-.148,.017-.218,.039-.179,.057-.285,.197-.295,.386-.005,.096-.002,.193-.002,.29,0,.356-.001,.712,.001,1.068,0,.062-.019,.079-.079,.078-.157-.004-.314-.004-.471,0-.061,.002-.073-.02-.072-.076,.003-.229,.001-.459,.001-.688,0,0,.002,0,.002,0Z"/>
    <path d="M18.824,4.075c0-.374,.001-.749-.001-1.123,0-.062,.019-.078,.079-.077,.161,.004,.322,.003,.483,0,.043,0,.061,.012,.06,.058-.001,.765,0,1.53,0,2.295,0,.046-.017,.059-.06,.058-.165-.002-.33-.003-.495,0-.056,.001-.067-.02-.067-.071,.002-.38,0-.761,0-1.141Z"/>
    <path d="M18.798,2.367c0-.227,.119-.357,.326-.356,.226,0,.358,.127,.358,.34,0,.221-.127,.349-.342,.348-.216,0-.342-.123-.342-.332Z"/>
  </g>
</svg>