<?xml version="1.0" encoding="UTF-8"?>
<svg id="logo-43" xmlns="http://www.w3.org/2000/svg" viewBox="0 0 40.468 12.532">
  <defs>
    <style>
      .cls-1 {
        fill: #3673a5;
      }

      .cls-2 {
        fill: #ffd342;
      }
    </style>
  </defs>
  <g>
    <path d="M14.355,7.414v2.769c-.238-.084-.447-.128-.62-.232-.077-.047-.112-.215-.112-.328-.007-1.444-.005-2.888-.005-4.332,0-.414,.017-.829-.006-1.241-.015-.267,.097-.434,.299-.574,.409-.282,.864-.441,1.355-.5,.172-.021,.347-.039,.52-.037,.955,.012,1.47,.573,1.725,1.426,.199,.664,.22,1.342,.031,2.011-.358,1.266-1.463,1.786-2.678,1.273-.151-.064-.297-.137-.508-.236Zm-.006-2.059c0,.303,0,.606,0,.909,0,.711,.091,.828,.786,1.008,.062,.016,.125,.03,.188,.043,.539,.107,1.07-.135,1.264-.646,.331-.871,.327-1.763-.018-2.631-.183-.46-.565-.681-1.055-.624-.313,.037-.619,.149-.924,.239-.181,.054-.248,.187-.243,.38,.011,.441,.003,.882,.003,1.322Z"/>
    <path d="M19.855,9.745c1.763-.216,2.039-.766,1.881-2.262-.263,.078-.52,.197-.786,.223-.451,.044-.923,.104-1.359,.02-.65-.127-1.023-.693-1.024-1.359-.001-.957,.009-1.913-.007-2.87-.004-.24,.074-.354,.298-.402,.132-.028,.26-.079,.428-.131,.007,.118,.017,.213,.017,.308,.001,.947,.017,1.895-.004,2.842-.022,1,.786,1.292,1.437,1.205,.091-.012,.18-.036,.268-.062,.678-.196,.746-.286,.746-.987,0-.975,.009-1.95-.006-2.925-.004-.268,.119-.307,.334-.294,.197,.012,.41-.049,.406,.284-.02,1.6-.007,3.2-.043,4.8-.026,1.148-.682,1.794-1.926,1.983-.045,.007-.091,.01-.137,.017q-.444,.072-.524-.39Z"/>
    <path d="M27.255,.282V3.563c.12-.062,.192-.111,.27-.137,.405-.135,.804-.342,1.219-.381,.97-.091,1.571,.483,1.587,1.46,.016,.992,0,1.985,.007,2.978,.001,.184-.069,.251-.242,.239-.055-.004-.111-.007-.165,0-.261,.036-.35-.063-.345-.335,.016-.864,.008-1.728,.004-2.592,0-.155-.017-.312-.049-.463-.143-.673-.636-.96-1.294-.76-.053,.016-.104,.036-.156,.056-.79,.308-.836,.374-.836,1.213,0,.864-.013,1.728,.007,2.591,.007,.304-.157,.289-.363,.291-.213,.003-.362-.004-.36-.298,.011-2.224,.008-4.448,.002-6.672,0-.202,.062-.304,.262-.339,.141-.025,.277-.081,.45-.133Z"/>
    <path d="M35.387,5.317c-.014,.507-.108,.989-.355,1.433-.385,.69-.962,1.058-1.766,1.07-.789,.012-1.396-.3-1.78-.987-.471-.842-.545-1.737-.162-2.623,.434-1.004,1.225-1.334,2.028-1.27,1.045,.083,1.766,.761,1.956,1.752,.04,.206,.053,.417,.079,.626Zm-.757,.019c-.098-.393-.152-.797-.302-1.163-.2-.489-.596-.757-1.148-.737-.534,.019-.917,.284-1.094,.777-.308,.856-.275,1.713,.129,2.536,.219,.445,.595,.666,1.096,.634,.495-.032,.869-.278,1.024-.747,.136-.412,.196-.85,.294-1.3Z"/>
    <path d="M36.136,5.669c0-.579-.008-1.158,.007-1.736,.003-.11,.062-.261,.147-.321,.728-.52,1.536-.764,2.436-.638,.563,.079,1.198,.485,1.173,1.321-.032,1.037-.015,2.076-.002,3.114,.003,.239-.062,.345-.307,.314-.063-.008-.129-.006-.193,0-.189,.016-.254-.06-.252-.254,.009-.928-.033-1.858,.014-2.783,.051-.991-.711-1.481-1.652-1.218-.053,.015-.105,.032-.157,.051-.47,.176-.494,.211-.494,.717,0,1.066-.009,2.132,.006,3.197,.004,.27-.12,.301-.332,.291-.202-.01-.41,.039-.4-.291,.018-.587,.005-1.176,.005-1.764Z"/>
    <path d="M23.441,3.481q-.064-.366,.484-.471c0-.308,.019-.628-.006-.943-.02-.258,.067-.395,.318-.448,.131-.028,.257-.083,.428-.14,0,.447,.015,.858-.005,1.267-.012,.25,.084,.333,.316,.308,.073-.008,.147-.001,.22,0,.373,.002,.379,.009,.327,.444-.21,0-.426,.005-.643-.002-.152-.005-.216,.056-.215,.209,.003,1.002-.007,2.003,.009,3.005,.007,.41,.197,.606,.617,.684,.238,.044,.316,.148,.223,.39-.426,.053-.835-.001-1.189-.273-.331-.253-.397-.624-.399-1.011-.003-.873,0-1.746-.001-2.619,0-.432,.019-.383-.36-.385-.036,0-.072-.008-.124-.014Z"/>
  </g>
  <g>
    <path class="cls-1" d="M4.032,3.407c.682,0,1.365,.001,2.047-.003,.064,0,.179-.029,.183-.057,.016-.123,.006-.251-.01-.375-.002-.015-.099-.024-.153-.025-.827-.002-1.653-.001-2.48-.001q-.266,0-.267-.258c0-.327,.012-.655-.003-.981-.021-.438,.183-.74,.539-.959,.395-.243,.837-.341,1.29-.4,.579-.075,1.16-.09,1.741-.032,.582,.058,1.154,.156,1.65,.498,.382,.263,.583,.619,.579,1.094-.007,.848,.003,1.696-.006,2.544-.002,.191-.027,.388-.079,.572-.16,.568-.58,.858-1.128,.981-.176,.04-.362,.047-.544,.048-.921,.004-1.842,.002-2.762,.001-1.104,0-1.669,.719-1.703,1.698-.015,.432,0,.865-.006,1.297,0,.051-.051,.145-.079,.145-.36,.006-.724,.03-1.079-.014-.519-.065-.862-.403-1.104-.846-.233-.425-.335-.887-.378-1.365-.061-.675-.067-1.349,.107-2.011,.131-.498,.35-.945,.783-1.257,.268-.193,.565-.297,.899-.296,.655,.002,1.309,0,1.964,0Zm.554-1.148c.304,.003,.556-.24,.559-.538,.003-.301-.258-.563-.559-.561-.29,.002-.531,.248-.534,.545-.003,.314,.226,.552,.534,.555Z"/>
    <path class="cls-2" d="M8.528,9.274c-.682,0-1.365-.001-2.047,.003-.064,0-.179,.029-.183,.057-.016,.123-.006,.251,.01,.375,.002,.015,.099,.024,.153,.025,.827,.002,1.653,.001,2.48,.001q.266,0,.267,.258c0,.327-.012,.655,.003,.981,.021,.438-.183,.74-.539,.959-.395,.243-.837,.341-1.29,.4-.579,.075-1.16,.09-1.741,.032-.582-.058-1.154-.156-1.65-.498-.382-.263-.583-.619-.579-1.094,.007-.848-.003-1.696,.006-2.544,.002-.191,.027-.388,.079-.572,.16-.568,.58-.858,1.128-.981,.176-.04,.362-.047,.544-.048,.921-.004,1.842-.002,2.762-.001,1.104,0,1.669-.719,1.703-1.698,.015-.432,0-.865,.006-1.297,0-.051,.051-.145,.079-.145,.36-.006,.724-.03,1.079,.014,.519,.065,.862,.403,1.104,.846,.233,.425,.335,.887,.378,1.365,.061,.675,.067,1.349-.107,2.011-.131,.498-.35,.945-.783,1.257-.268,.193-.565,.297-.899,.296-.655-.002-1.309,0-1.964,0Zm-.554,1.148c-.304-.003-.556,.24-.559,.538-.003,.301,.258,.563,.559,.561,.29-.002,.531-.248,.534-.545,.003-.314-.226-.552-.534-.555Z"/>
  </g>
</svg>