<?xml version="1.0" encoding="UTF-8"?>
<svg id="logo-43" xmlns="http://www.w3.org/2000/svg" viewBox="0 0 6.367 6.973">
  <defs>
    <style>
      .cls-1 {
        fill: #e9c931;
      }

      .cls-2 {
        fill: #fedd24;
      }
    </style>
  </defs>
  <path class="cls-1" d="M6.131,.069c-.983,.002-1.965,.001-2.948,.001v-.011c-.452,0-.903,0-1.354,0-.529,0-1.059,0-1.587-.003-.054,0-.067,.016-.061,.066,.009,.067,.011,.134,.017,.201,.035,.425,.071,.85,.106,1.275,.026,.321,.05,.643,.077,.964,.035,.425,.072,.85,.107,1.275,.027,.326,.051,.651,.078,.977,.036,.444,.073,.887,.108,1.331,.004,.047,.018,.07,.067,.084,.809,.226,1.618,.454,2.426,.682,.029,.008,.055,.007,.083-.001,.152-.045,.305-.089,.458-.133,.63-.183,1.261-.366,1.892-.548,.047-.014,.063-.033,.065-.083,.004-.108,.017-.216,.026-.323,.027-.307,.055-.614,.082-.921,.022-.26,.043-.521,.066-.781,.031-.354,.062-.707,.093-1.061,.026-.303,.051-.606,.078-.909,.031-.356,.062-.712,.094-1.067,.028-.317,.055-.634,.084-.952,.004-.046-.003-.063-.055-.063ZM2.942,5.925c0,.052-.002,.075-.067,.058-.55-.146-1.101-.288-1.651-.43-.039-.01-.052-.026-.051-.066,.001-.345,0-.691,0-1.036,0-.038,.004-.053,.051-.045,.167,.03,.333,.055,.501,.079,.04,.006,.054,.02,.054,.062-.002,.137,0,.274-.001,.411,0,.035,.009,.05,.046,.056,.135,.023,.27,.046,.402,.077,.057,.013,.064-.003,.064-.054,0-.911,0-1.823,0-2.734,0-.309,0-.617,0-.926,0-.045,.012-.059,.058-.058,.178,.003,.355,.003,.533,0,.051,0,.063,.014,.063,.065-.001,.758,0,1.516,0,2.274s0,1.512,0,2.268ZM5.626,1.255c-.01,.117-.016,.235-.026,.352-.014,.164-.034,.327-.046,.491-.007,.105-.017,.21-.027,.316-.017,.178-.033,.355-.048,.533-.01,.117-.016,.235-.026,.352-.014,.168-.032,.335-.047,.503-.01,.109-.017,.219-.026,.328-.015,.168-.032,.335-.046,.503-.01,.113-.018,.227-.027,.34-.015,.174-.031,.347-.047,.521-.005,.061-.014,.122-.013,.182,0,.046-.016,.065-.058,.077-.247,.07-.492,.142-.738,.213-.285,.083-.57,.165-.855,.248-.107,.031-.215,.063-.322,.096-.048,.015-.064,.006-.064-.051,.002-.926,.001-1.851,.001-2.777,0-.919,0-1.839-.001-2.758,0-.061,.014-.079,.077-.079,.774,.003,1.549,.002,2.323,0,.053,0,.075,.007,.068,.07-.021,.179-.035,.359-.05,.539Z"/>
  <path class="cls-2" d="M5.608,.646c-.774,.001-1.548,.002-2.323,0-.063,0-.077,.018-.077,.079,.002,.919,.001,1.839,.001,2.758,0,.926,0,1.851-.001,2.777,0,.056,.016,.066,.064,.051,.107-.033,.214-.064,.322-.096,.285-.083,.57-.165,.855-.248,.246-.071,.492-.143,.738-.213,.042-.012,.059-.031,.058-.077,0-.061,.007-.122,.013-.182,.016-.174,.032-.347,.047-.521,.01-.113,.017-.227,.027-.34,.015-.168,.031-.335,.046-.503,.01-.109,.017-.219,.026-.328,.015-.168,.033-.335,.047-.503,.01-.117,.017-.235,.026-.352,.015-.178,.031-.356,.048-.533,.01-.105,.02-.21,.027-.316,.012-.164,.032-.327,.046-.491,.011-.117,.017-.235,.026-.352,.015-.18,.029-.36,.05-.539,.007-.062-.015-.07-.068-.07Zm-.475,1.344c-.006,.043-.024,.055-.067,.055-.294-.002-.588,0-.883-.002-.044,0-.059,.01-.059,.057,.002,.36,.002,.719,0,1.079,0,.043,.012,.055,.055,.055,.294-.002,.588,0,.882-.002,.047,0,.063,.009,.061,.06-.025,.442-.048,.885-.071,1.327-.015,.29-.028,.579-.041,.869-.006,.145-.005,.145-.146,.178-.459,.106-.918,.211-1.376,.32-.051,.012-.058-.002-.057-.047,.002-.212,.002-.425,0-.638,0-.043,.014-.059,.053-.073,.317-.107,.632-.218,.95-.324,.045-.015,.062-.035,.065-.085,.014-.29,.031-.579,.052-.868,.003-.052-.01-.062-.058-.055-.321,.048-.642,.093-.962,.141-.098,.015-.098,.017-.098-.081v-1.275c0-.433,0-.866,0-1.299,0-.051,.014-.065,.064-.064,.562,.002,1.124,.002,1.685,0,.051,0,.065,.008,.055,.063-.037,.203-.069,.406-.102,.609Z"/>
</svg>