<?xml version="1.0" encoding="UTF-8"?>
<svg id="logo-43" xmlns="http://www.w3.org/2000/svg" viewBox="0 0 6.978 7.027">
  <defs>
    <style>
      .cls-1 {
        fill: #ff2d20;
      }
    </style>
  </defs>
  <path class="cls-1" d="M1.546,.049c.138,.083,.275,.168,.415,.248,.279,.161,.557,.323,.839,.477,.095,.052,.131,.114,.131,.222-.004,.859-.002,1.718-.002,2.577v.126c.037-.017,.061-.027,.084-.04,.318-.181,.634-.364,.953-.542,.055-.031,.071-.068,.071-.127-.002-.422,.001-.843-.002-1.265,0-.098,.03-.159,.119-.209,.401-.223,.8-.452,1.197-.682,.074-.043,.135-.043,.209,0,.4,.231,.802,.461,1.205,.687,.081,.045,.113,.1,.112,.194-.004,.453-.004,.906,0,1.358,0,.086-.029,.137-.104,.179-.379,.213-.754,.431-1.133,.644-.059,.033-.083,.069-.082,.138,.003,.428,0,.856,.003,1.284,0,.083-.03,.132-.101,.172-.847,.482-1.694,.965-2.54,1.45-.067,.038-.122,.041-.191,.002-.851-.488-1.704-.973-2.555-1.46-.034-.02-.063-.049-.094-.074,0-1.512,0-3.023,0-4.535,.047-.034,.092-.072,.142-.101,.396-.228,.793-.453,1.19-.68,.021-.012,.038-.029,.057-.043,.025,0,.05,0,.075,0ZM.3,1.09c-.003,.048-.007,.076-.007,.103,0,1.346,0,2.692-.002,4.038,0,.066,.025,.1,.08,.131,.752,.427,1.504,.857,2.255,1.285,.025,.014,.051,.026,.09,.045v-.103c0-.356-.002-.712,.001-1.068,0-.065-.02-.1-.077-.132-.372-.205-.74-.417-1.114-.62-.096-.052-.129-.115-.129-.223,.004-.912,.001-1.824,.003-2.736,0-.067-.017-.107-.079-.14-.152-.08-.299-.169-.448-.255-.187-.106-.374-.212-.576-.327Zm5.045,2.987c-.023,.009-.038,.012-.05,.019-.769,.435-1.538,.871-2.308,1.304-.05,.028-.059,.063-.059,.113,.001,.362,0,.724,.001,1.086,0,.026,.004,.053,.007,.089,.034-.017,.059-.028,.083-.041,.754-.43,1.508-.861,2.262-1.29,.053-.03,.074-.065,.073-.126-.003-.356-.001-.712-.002-1.068,0-.027-.005-.053-.008-.087Zm-3.618,.554c.019,.017,.027,.027,.038,.033,.335,.188,.669,.378,1.007,.561,.033,.018,.096,.005,.133-.016,.749-.42,1.496-.844,2.244-1.267,.028-.016,.054-.035,.092-.059-.352-.201-.689-.391-1.023-.586-.06-.035-.104-.031-.162,.003-.381,.221-.764,.438-1.147,.656-.39,.223-.781,.446-1.182,.675Zm.991-3.536c-.041,.02-.066,.031-.09,.045-.309,.176-.617,.355-.929,.528-.067,.037-.088,.08-.088,.154,.002,.84,.002,1.679,.002,2.519,0,.032,0,.065,0,.112,.042-.021,.067-.031,.091-.045,.309-.176,.617-.355,.929-.527,.067-.037,.087-.08,.087-.154-.002-.84-.002-1.679-.002-2.519v-.112Zm1.631,.553c.368,.21,.717,.411,1.069,.606,.026,.014,.078,.001,.109-.016,.321-.18,.64-.363,.96-.546,.02-.012,.038-.027,.063-.045-.019-.014-.03-.025-.043-.032-.333-.191-.665-.382-1.001-.569-.029-.016-.084-.008-.116,.009-.273,.151-.543,.307-.814,.462-.07,.04-.139,.08-.227,.13ZM.395,.912c.028,.013,.04,.017,.051,.023,.339,.194,.678,.389,1.019,.578,.026,.015,.079,.005,.109-.011,.322-.18,.641-.364,.961-.547,.022-.013,.042-.029,.074-.051-.361-.206-.708-.405-1.057-.599-.027-.015-.079-.006-.109,.011-.211,.116-.419,.237-.627,.356-.132,.075-.264,.151-.419,.24ZM5.56,3.703c.041-.021,.068-.033,.094-.048,.312-.178,.623-.357,.937-.532,.059-.033,.082-.072,.081-.14-.003-.35-.001-.699-.002-1.049,0-.029-.004-.059-.007-.095-.023,.008-.035,.01-.046,.015-.337,.191-.674,.382-1.008,.577-.028,.016-.047,.07-.048,.106-.004,.3-.002,.599-.002,.899,0,.083,0,.167,0,.266Zm-.212,0c.003-.056,.005-.09,.005-.123,0-.34-.002-.68,.002-1.02,0-.074-.022-.118-.088-.155-.311-.173-.619-.351-.928-.527-.026-.015-.053-.027-.086-.043-.004,.022-.008,.034-.008,.045,0,.38-.002,.761,.003,1.141,0,.032,.037,.076,.069,.094,.296,.173,.595,.342,.893,.511,.04,.023,.081,.044,.138,.076Z"/>
</svg>