<?xml version="1.0" encoding="UTF-8"?>
<svg id="logo-43" xmlns="http://www.w3.org/2000/svg" viewBox="0 0 6 6.973">
  <defs>
    <style>
      .cls-1 {
        fill: #059343;
      }
    </style>
  </defs>
  <path class="cls-1" d="M5.902,3.486c0,.537,0,1.073,0,1.61,0,.115-.034,.149-.14,.201-.108,.053-.208,.122-.31,.187-.099,.062-.195,.131-.296,.19-.146,.087-.295,.168-.443,.253-.063,.036-.124,.075-.187,.113-.249,.15-.498,.301-.747,.451-.207,.124-.413,.248-.62,.372-.133,.08-.212,.067-.364-.039-.116-.081-.242-.148-.363-.223-.111-.068-.222-.138-.333-.206-.043-.026-.089-.049-.132-.075-.102-.063-.201-.129-.304-.19-.142-.084-.286-.163-.429-.245-.056-.032-.11-.067-.165-.101-.25-.151-.499-.301-.749-.451-.026-.016-.054-.03-.082-.043-.079-.034-.115-.093-.115-.179,0-1.082,0-2.164-.001-3.245,0-.09,.047-.141,.114-.182,.218-.132,.435-.265,.655-.395,.146-.087,.296-.168,.443-.253,.067-.039,.133-.08,.2-.121,.063-.039,.125-.079,.188-.117,.161-.096,.324-.189,.485-.285,.228-.136,.456-.273,.683-.413,.081-.05,.156-.053,.238-.003,.274,.168,.548,.337,.824,.501,.299,.177,.602,.348,.901,.526,.163,.097,.317,.206,.48,.304,.153,.092,.312,.174,.467,.263,.067,.039,.104,.095,.103,.178-.002,.539-.001,1.079,0,1.618Zm-3.835-.58c.109,.134,.209,.258,.31,.381,.122,.148,.247,.294,.366,.444,.148,.186,.29,.377,.439,.562,.171,.213,.351,.42,.52,.635,.152,.194,.346,.285,.59,.272,.172-.009,.381-.133,.38-.379-.002-.887,.002-1.773-.001-2.66,0-.12-.02-.231-.133-.327-.175-.148-.52-.082-.592,.156-.02,.066-.031,.138-.031,.207-.002,.57-.001,1.141-.001,1.711,0,.041,0,.083,0,.143-.073-.087-.136-.16-.197-.234-.082-.101-.162-.204-.245-.305-.095-.117-.193-.233-.287-.351-.123-.154-.243-.309-.366-.463-.085-.107-.174-.211-.259-.318-.114-.144-.213-.304-.343-.43-.174-.168-.393-.247-.638-.178-.153,.043-.288,.183-.287,.37,.006,.904,.005,1.807,.001,2.711,0,.167,.191,.333,.331,.35,.249,.03,.446-.198,.444-.419-.006-.621-.002-1.242-.002-1.879Z"/>
</svg>