<?xml version="1.0" encoding="UTF-8"?>
<svg id="logo-43" xmlns="http://www.w3.org/2000/svg" viewBox="0 0 6.883 6.973">
  <defs>
    <style>
      .cls-1 {
        fill: #3673a5;
      }

      .cls-2 {
        fill: #ffd342;
      }
    </style>
  </defs>
  <path class="cls-1" d="M2.187,1.814c.381,0,.762,0,1.142-.001,.036,0,.1-.017,.102-.032,.009-.07,.003-.143-.006-.214-.001-.009-.055-.014-.085-.014-.461,0-.923,0-1.384,0q-.149,0-.149-.147c0-.186,.007-.373-.002-.559-.012-.25,.102-.422,.301-.547,.221-.139,.467-.195,.72-.228,.323-.043,.647-.051,.972-.018,.325,.033,.644,.089,.921,.284,.213,.15,.326,.353,.323,.624-.004,.484,.001,.967-.003,1.451-.001,.109-.015,.221-.044,.326-.089,.324-.324,.489-.63,.559-.098,.023-.202,.027-.304,.028-.514,.002-1.028,.001-1.542,0-.616,0-.931,.41-.95,.968-.008,.246,0,.493-.003,.74,0,.029-.028,.082-.044,.083-.201,.003-.404,.017-.602-.008-.29-.037-.481-.23-.616-.482-.13-.242-.187-.506-.211-.779-.034-.385-.037-.769,.06-1.147,.073-.284,.196-.539,.437-.717,.15-.11,.315-.17,.502-.169,.365,.001,.731,0,1.096,0Zm.309-.655c.17,.002,.31-.137,.312-.307,.002-.172-.144-.321-.312-.32-.162,.001-.296,.141-.298,.311-.002,.179,.126,.315,.298,.316Z"/>
  <path class="cls-2" d="M4.696,5.159c-.381,0-.762,0-1.142,.001-.036,0-.1,.017-.102,.032-.009,.07-.003,.143,.006,.214,.001,.009,.055,.014,.085,.014,.461,0,.923,0,1.384,0q.149,0,.149,.147c0,.186-.007,.373,.002,.559,.012,.25-.102,.422-.301,.547-.221,.139-.467,.195-.72,.228-.323,.043-.647,.051-.972,.018-.325-.033-.644-.089-.921-.284-.213-.15-.326-.353-.323-.624,.004-.484-.001-.967,.003-1.451,.001-.109,.015-.221,.044-.326,.089-.324,.324-.489,.63-.559,.098-.023,.202-.027,.304-.028,.514-.002,1.028-.001,1.542,0,.616,0,.931-.41,.95-.968,.008-.246,0-.493,.003-.74,0-.029,.028-.082,.044-.083,.201-.003,.404-.017,.602,.008,.29,.037,.481,.23,.616,.482,.13,.242,.187,.506,.211,.779,.034,.385,.037,.769-.06,1.147-.073,.284-.196,.539-.437,.717-.15,.11-.315,.17-.502,.169-.365-.001-.731,0-1.096,0Zm-.309,.655c-.17-.002-.31,.137-.312,.307-.002,.172,.144,.321,.312,.32,.162-.001,.296-.141,.298-.311,.002-.179-.126-.315-.298-.316Z"/>
</svg>