<?xml version="1.0" encoding="UTF-8"?>
<svg id="logo-43" xmlns="http://www.w3.org/2000/svg" viewBox="0 0 7.876 6.973">
  <defs>
    <style>
      .cls-1 {
        fill: #61d9fa;
      }
    </style>
  </defs>
  <path class="cls-1" d="M7.674,3.04c-.096-.13-.214-.237-.344-.331-.324-.234-.687-.388-1.066-.507-.046-.014-.065-.028-.052-.084,.064-.29,.106-.584,.105-.882,.002-.247-.025-.489-.113-.721C6.078,.18,5.815,0,5.472,.019c-.19,.01-.368,.07-.539,.149-.358,.165-.667,.402-.956,.666-.028,.026-.044,.032-.076,.003-.153-.141-.313-.273-.486-.391-.284-.194-.581-.357-.928-.411-.339-.053-.623,.087-.777,.39-.116,.229-.149,.477-.155,.729-.008,.32,.034,.637,.103,.949,.017,.078,.018,.079-.056,.102-.262,.084-.517,.186-.759,.319-.244,.135-.47,.292-.64,.519-.21,.282-.212,.593-.009,.877,.108,.152,.246,.272,.398,.378,.316,.219,.667,.365,1.031,.479,.04,.013,.058,.026,.047,.073-.086,.382-.133,.768-.096,1.16,.02,.21,.063,.415,.174,.599,.133,.222,.326,.343,.59,.346,.241,.004,.46-.073,.672-.176,.332-.162,.621-.386,.891-.634,.031-.028,.047-.039,.083-.005,.154,.143,.316,.276,.49,.394,.294,.199,.6,.37,.963,.411,.287,.032,.544-.071,.7-.333,.133-.222,.173-.468,.186-.72,.018-.351-.029-.696-.104-1.038-.01-.048,0-.064,.045-.078,.286-.089,.563-.202,.823-.352,.22-.127,.424-.274,.58-.48,.221-.292,.223-.61,.006-.905ZM5.284,.411c.074-.024,.151-.037,.229-.037,.162-.005,.27,.073,.338,.216,.067,.142,.094,.292,.106,.446,.026,.34-.02,.673-.088,1.005-.007,.034-.019,.042-.052,.034-.306-.076-.618-.123-.931-.16-.027-.003-.043-.013-.059-.034-.19-.257-.391-.505-.612-.736-.017-.018-.023-.03-.001-.05,.319-.287,.653-.551,1.07-.685ZM2.326,3.922c.133,.261,.277,.502,.435,.751-.091-.015-.169-.025-.246-.04-.122-.024-.242-.051-.364-.076-.02-.004-.042-.002-.032-.036,.056-.199,.125-.394,.207-.599Zm-.162-1.507c.194-.041,.387-.08,.594-.109-.154,.245-.297,.489-.439,.743-.035-.095-.072-.19-.105-.285-.032-.091-.058-.184-.091-.274-.016-.045-.007-.063,.042-.074Zm.493,1.373c-.044-.086-.085-.173-.13-.259-.013-.026-.013-.046,0-.073,.195-.408,.418-.799,.674-1.172,.016-.024,.034-.035,.063-.037,.226-.014,.452-.03,.678-.023,.227-.006,.453,.009,.679,.023,.025,.002,.041,.012,.054,.032,.255,.373,.484,.761,.677,1.17,.012,.025,.016,.046,.003,.073-.196,.407-.417,.8-.673,1.172-.018,.025-.036,.037-.067,.04-.319,.025-.638,.029-.957,.021-.134-.003-.267-.015-.4-.021-.03-.001-.042-.02-.055-.04-.201-.29-.383-.592-.545-.906Zm2.461-1.484c.207,.03,.397,.068,.587,.109,.049,.011,.064,.021,.047,.077-.057,.18-.118,.359-.185,.535-.002,.007-.007,.012-.015,.025-.132-.256-.275-.5-.434-.746Zm.436,1.612c.07,.172,.129,.337,.182,.505,.001,.005,.003,.011,.004,.016,.033,.11,.033,.112-.077,.135-.16,.033-.32,.062-.48,.092-.016,.003-.033,.002-.061,.003,.158-.245,.298-.492,.432-.752ZM3.912,1.393c.014-.015,.024-.027,.043-.006,.144,.154,.284,.312,.42,.489-.295-.013-.58-.013-.876-.001,.06-.074,.112-.142,.168-.208,.08-.093,.162-.183,.243-.275ZM1.999,.648c.051-.132,.125-.244,.281-.263,.102-.012,.203,0,.302,.029,.248,.073,.464,.205,.673,.352,.141,.1,.272,.212,.402,.326,.026,.022,.022,.035,0,.057-.219,.228-.418,.472-.604,.728-.016,.022-.033,.034-.063,.038-.313,.037-.624,.084-.93,.161-.031,.008-.045,.003-.053-.033-.057-.265-.097-.532-.099-.811,.002-.194,.016-.394,.09-.584Zm-.283,3.79c-.294-.096-.579-.211-.84-.378-.152-.097-.297-.204-.402-.356-.045-.065-.074-.136-.08-.221,.009-.121,.075-.219,.157-.307,.163-.175,.365-.296,.577-.403,.189-.095,.387-.169,.588-.236,.035-.012,.05-.007,.061,.032,.085,.288,.188,.571,.311,.845,.024,.053,.025,.096,0,.151-.12,.271-.224,.549-.304,.835-.012,.042-.026,.05-.068,.036Zm.935,2.111c-.084,.03-.171,.049-.26,.055-.163,.011-.283-.056-.356-.205-.056-.115-.084-.237-.102-.362-.015-.1-.014-.2-.014-.328-.004-.243,.039-.508,.093-.772,.007-.034,.02-.045,.055-.036,.301,.074,.606,.125,.914,.157,.033,.003,.057,.016,.078,.045,.186,.253,.386,.495,.601,.724,.021,.023,.029,.037,.001,.062-.303,.271-.62,.52-1.009,.66Zm1.318-.968c-.015,.017-.027,.028-.049,.005-.14-.151-.277-.305-.404-.468-.002-.003-.002-.007-.006-.019,.288,.016,.572,.019,.871,0-.065,.081-.12,.153-.179,.221-.076,.088-.156,.174-.234,.261Zm1.911,.754c-.077,.199-.184,.269-.396,.26-.095-.004-.187-.03-.275-.063-.277-.102-.518-.265-.747-.447-.08-.063-.155-.133-.233-.198-.024-.02-.03-.033-.004-.06,.218-.228,.418-.472,.604-.728,.018-.025,.038-.037,.068-.04,.306-.031,.61-.081,.909-.156,.046-.011,.062-.006,.072,.044,.053,.262,.094,.525,.094,.794,0,.203-.016,.404-.09,.596Zm1.487-2.58c-.122,.15-.277,.257-.441,.353-.243,.143-.504,.244-.77,.333-.036,.012-.044-.003-.052-.031-.09-.306-.204-.604-.333-.897-.009-.021-.008-.037,0-.058,.127-.289,.237-.584,.327-.887,.006-.021,.005-.049,.045-.036,.353,.114,.694,.254,.995,.476,.114,.084,.218,.179,.292,.303,.032,.054,.05,.111,.056,.171-.007,.107-.055,.193-.119,.273Z"/>
  <path class="cls-1" d="M3.937,4.212c-.405,0-.723-.321-.722-.726,0-.4,.328-.726,.727-.725,.401,.001,.725,.33,.723,.735-.002,.398-.325,.716-.728,.715Z"/>
</svg>