<?xml version="1.0" encoding="UTF-8"?>
<svg id="logo-43" xmlns="http://www.w3.org/2000/svg" viewBox="0 0 11.721 6.973">
  <defs>
    <style>
      .cls-1 {
        fill: #44cae0;
      }

      .cls-2 {
        fill: #06b6d4;
      }
    </style>
  </defs>
  <path class="cls-1" d="M10.489,3.017c.002,.006,0,.014,.006,.019,0,.006-.002,.012-.011,.017-.002-.013-.002-.025,.005-.036Z"/>
  <path class="cls-2" d="M11.612,1.214c-.035,.145-.08,.287-.131,.427-.114,.31-.263,.6-.467,.861-.314,.402-.716,.677-1.201,.833-.19,.061-.385,.101-.583,.126-.206,.025-.413,.034-.62,.028-.375-.011-.741-.068-1.095-.198-.277-.102-.531-.246-.767-.423-.208-.157-.395-.337-.579-.521-.134-.135-.266-.272-.406-.402-.12-.111-.246-.215-.385-.302-.18-.114-.376-.181-.586-.213-.089-.013-.179-.022-.269-.022-.304,0-.586,.081-.847,.236-.219,.13-.405,.299-.572,.49-.05,.057-.097,.116-.144,.176-.003,.003-.006,.003-.009,0,.024-.109,.058-.216,.093-.322,.089-.268,.204-.524,.356-.763,.226-.355,.516-.642,.885-.847,.242-.135,.501-.225,.771-.282,.181-.038,.365-.059,.55-.071,.019-.006,.039-.001,.059-.003,.011,0,.022,0,.032,0,.018-.002,.038,.004,.056-.004h.162c.02,.008,.041,.002,.062,.004,.013,0,.025,0,.038,0,.017,0,.033,0,.05,0,.272,.003,.537,.049,.797,.125,.415,.12,.782,.329,1.112,.607,.173,.146,.338,.3,.493,.465,.11,.117,.225,.229,.342,.339,.192,.18,.399,.34,.65,.433,.141,.052,.287,.08,.436,.094,.064,.006,.128,.008,.192,.007,.266-.007,.515-.076,.747-.205,.27-.15,.49-.36,.685-.596,.02-.024,.04-.047,.058-.072,.008-.011,.016-.024,.034-.021,.003,.006,.003,.012,0,.017Z"/>
  <path class="cls-2" d="M5.7,6.956c-.013,0-.026,0-.039,0-.02-.001-.041-.003-.061,0-.181-.013-.36-.033-.538-.069-.402-.083-.771-.241-1.107-.476-.207-.145-.395-.312-.574-.49-.15-.148-.297-.299-.448-.446-.117-.114-.241-.22-.375-.314-.199-.138-.417-.224-.657-.259-.107-.016-.214-.025-.322-.022-.258,.007-.499,.075-.726,.197-.223,.12-.413,.282-.585,.467-.071,.077-.137,.157-.2,.239-.003,0-.006,0-.009,0,.03-.133,.071-.263,.117-.391,.104-.295,.239-.574,.422-.828,.331-.461,.772-.77,1.314-.933,.197-.059,.399-.097,.604-.118,.183-.019,.367-.026,.551-.02,.332,.01,.657,.056,.974,.158,.343,.11,.653,.281,.935,.503,.189,.148,.361,.314,.53,.483,.152,.153,.301,.31,.463,.454,.146,.13,.302,.248,.48,.333,.137,.066,.281,.104,.43,.128,.09,.014,.181,.023,.272,.023,.274,0,.531-.066,.773-.195,.203-.109,.378-.251,.538-.416,.089-.091,.171-.189,.249-.29,.014,0,.01,.008,.007,.015-.037,.152-.085,.301-.14,.448-.104,.278-.238,.541-.415,.78-.32,.433-.737,.728-1.249,.891-.194,.062-.392,.102-.594,.126-.086,.01-.171,.016-.257,.023-.021-.003-.041,0-.062,0-.021,0-.041,0-.062,0-.062,0-.124,0-.186,0-.018,0-.036,0-.054,0Z"/>
</svg>