<?xml version="1.0" encoding="UTF-8"?>
<svg id="logo-43" xmlns="http://www.w3.org/2000/svg" viewBox="0 0 7.144 6.973">
  <defs>
    <style>
      .cls-1 {
        fill: #3279c6;
      }
    </style>
  </defs>
  <path class="cls-1" d="M.124,3.488c0-1.023,0-2.047,0-3.07,0-.282,.111-.393,.394-.393,2.035,0,4.069,0,6.104,0,.277,0,.398,.119,.398,.395,0,2.047,0,4.094,0,6.141,0,.268-.12,.387-.389,.387-2.034,0-4.069,.001-6.103,0-.323,0-.403-.083-.403-.405,0-1.018,0-2.037,0-3.055Zm3.999,1.925c0,.235,.004,.435-.002,.634-.002,.091,.027,.139,.118,.169,.484,.163,.975,.188,1.466,.058,.376-.1,.643-.335,.707-.739,.067-.426-.063-.775-.441-1.013-.185-.116-.382-.206-.582-.292-.143-.062-.281-.134-.389-.25-.133-.143-.106-.332,.058-.437,.062-.04,.129-.065,.201-.078,.317-.055,.617,.009,.901,.147,.097,.047,.125,.04,.121-.071-.006-.155-.004-.31,0-.465,.002-.077-.02-.123-.103-.145-.487-.129-.97-.147-1.449,.031-.319,.118-.537,.335-.597,.675-.066,.37,.021,.699,.328,.945,.188,.151,.409,.241,.628,.334,.162,.069,.324,.139,.445,.275,.145,.163,.114,.361-.075,.47-.068,.039-.142,.06-.22,.072-.402,.06-.756-.06-1.114-.32Zm-1.269-.511c0-.418,.003-.837-.002-1.255-.001-.102,.031-.137,.132-.131,.129,.007,.259,.005,.388,0,.149-.005,.343,.064,.435-.026,.099-.097,.015-.294,.034-.446,.016-.127-.035-.155-.154-.154-.709,.005-1.417,0-2.126,.004-.153,0-.354-.068-.446,.033-.09,.099-.017,.297-.028,.451-.008,.106,.029,.147,.14,.143,.222-.008,.445,.006,.667-.006,.142-.008,.182,.037,.181,.179-.007,.821-.001,1.642-.006,2.463,0,.114,.027,.158,.146,.152,.16-.009,.321-.008,.481,0,.118,.006,.163-.023,.16-.153-.009-.418-.003-.837-.003-1.255Z"/>
</svg>