<?xml version="1.0" encoding="UTF-8"?>
<svg id="logo-43" xmlns="http://www.w3.org/2000/svg" viewBox="0 0 6.883 6.973">
  <defs>
    <style>
      .cls-1 {
        fill: #0079cc;
      }
    </style>
  </defs>
  <path class="cls-1" d="M5.08,.049c.153,.063,.29,.12,.427,.176,.403,.166,.806,.334,1.21,.498,.06,.024,.084,.055,.084,.123-.002,1.761-.003,3.521,0,5.282,0,.072-.021,.108-.089,.135-.525,.214-1.049,.433-1.574,.647-.04,.016-.095,.02-.135,.006-.65-.214-1.298-.431-1.947-.648-.724-.243-1.448-.487-2.172-.73-.28-.094-.56-.186-.837-.293,.133,.02,.267,.04,.401,.059,.389,.057,.779,.112,1.168,.17,.339,.05,.678,.103,1.018,.153,.31,.046,.621,.088,.932,.134,.26,.038,.52,.079,.78,.119,.223,.034,.446,.068,.67,.102,.041,.006,.069-.003,.067-.052-.001-.024,0-.048,0-.072,0-1.891,0-3.781,0-5.672,0-.041,0-.082,0-.137Z"/>
  <path class="cls-1" d="M.331,3.957c.318-.319,.633-.635,.958-.961-.336-.329-.656-.642-.983-.964,.124-.042,.24-.084,.358-.119,.015-.005,.042,.018,.06,.031,.282,.21,.565,.418,.844,.632,.061,.047,.094,.039,.144-.011,.491-.486,.985-.97,1.478-1.455,.032-.031,.057-.055,.109-.032,.268,.118,.538,.233,.808,.344,.062,.025,.082,.058,.081,.124-.002,.961-.003,1.922,0,2.883,0,.075-.026,.107-.092,.134-.283,.116-.564,.237-.876,.369-.174-.181-.352-.374-.538-.56-.324-.323-.654-.641-.978-.964-.049-.049-.081-.049-.133-.009-.28,.212-.561,.423-.845,.63-.028,.021-.079,.028-.114,.019-.1-.025-.197-.062-.282-.09Zm2.918-1.781c-.006-.005-.013-.01-.019-.015-.366,.274-.733,.548-1.108,.829,.378,.283,.746,.558,1.127,.843v-1.656Z"/>
</svg>