<?xml version="1.0" encoding="UTF-8"?>
<svg id="logo-43" xmlns="http://www.w3.org/2000/svg" viewBox="0 0 8.426 6.9">
  <defs>
    <style>
      .cls-1 {
        fill: #41b782;
      }

      .cls-2 {
        fill: #35495e;
      }
    </style>
  </defs>
  <path class="cls-1" d="M8.229,.03c-.024,.038-.049,.077-.073,.115-.412-.04-.826-.011-1.239-.02-.092-.002-.186,.011-.272-.035-.023-.015-.028-.035-.017-.059,.534,0,1.068,0,1.601,0Z"/>
  <path class="cls-2" d="M3.275,.03c.003,.024,.006,.048,.009,.072-.081,.049-.169,.019-.253,.021-.376,.011-.752-.023-1.128,.021-.062,.024-.101-.003-.127-.057-.007-.021-.004-.04,.009-.057,.497,0,.993,0,1.49,0Z"/>
  <path class="cls-2" d="M6.627,.03c-.004,.012-.006,.024-.006,.036-.004,.068-.035,.1-.106,.079-.395-.045-.791-.012-1.186-.021-.067-.001-.136,.019-.199-.022,.003-.024,.005-.048,.008-.072,.497,0,.993,0,1.49,0Z"/>
  <path class="cls-1" d="M.371,.03h.745c.011,.024,.006,.044-.017,.058-.237,.054-.474,.054-.712,0-.022-.015-.028-.034-.017-.059Z"/>
  <path class="cls-1" d="M1.115,.067c0-.012,0-.025,0-.037h.67c.004,.012,.006,.024,.006,.037-.226,.093-.451,.093-.677,0Z"/>
  <path class="cls-1" d="M.371,.03c0,.012,0,.024,0,.036-.04,.049-.093,.043-.147,.036-.013-.024-.026-.048-.039-.072h.186Z"/>
  <path class="cls-1" d="M.223,.102c.039-.053,.096-.029,.147-.036,.248,0,.497,0,.745,0,.226,0,.451,0,.677,0,.023,.024,.046,.049,.069,.073,.148,.114,.212,.287,.301,.44,.647,1.117,1.3,2.231,1.944,3.35,.099,.173,.113,.173,.22-.01,.585-1.002,1.16-2.011,1.739-3.017,.121-.21,.244-.418,.366-.627,.031-.052,.053-.114,.12-.136,.023-.025,.046-.049,.069-.074,.452,0,.904,0,1.355,.002,.066,0,.157-.038,.179,.076-.422,.73-.842,1.462-1.265,2.191-.857,1.475-1.717,2.949-2.576,4.424-.028,.048-.058,.094-.086,.14-.062-.018-.074-.072-.098-.113C2.835,4.576,1.541,2.364,.247,.152c-.009-.016-.016-.033-.024-.05Z"/>
  <path class="cls-2" d="M6.552,.14c-.406,.71-.811,1.421-1.219,2.13-.337,.586-.68,1.168-1.013,1.755-.076,.133-.108,.177-.204,.009C3.423,2.831,2.722,1.632,2.024,.432c-.056-.096-.108-.195-.163-.292,.006-.054,.039-.072,.089-.072,.409,0,.818,0,1.228,.003,.035,0,.071,.02,.106,.031,.303,.494,.606,.987,.924,1.504,.313-.511,.617-1.008,.922-1.504,.136-.062,.281-.032,.422-.034,.279-.004,.558-.003,.836,0,.061,0,.145-.033,.164,.071Z"/>
</svg>